<svg viewBox="0 0 256 160" xmlns="http://www.w3.org/2000/svg" class="clusive-icon">
<style>
.ci-primary {
  fill: var(--CT_ciPrimaryColor, #636b82);
  opacity: var(--CT_ciPrimaryOpacity, 1);
}
.ci-toggle {
  fill: var(--CT_ciToggleColor, #ff554d);
  opacity: var(--CT_ciToggleOpacity, 1);
}
.ci-toggle-eye {
  fill: var(--CT_ciToggleEyeColor, #fbfbfb);
  opacity: var(--CT_ciToggleEyeOpacity, 1);
}
</style>
<path class="ci-primary" d="M169.730536,27 C171.744178,27 173.660294,27.8671572 174.989322,29.3799161 L207.031516,65.8517702 L247.649204,64.7860251 C251.279563,64.6907787 254.57771,66.8884433 255.887638,70.2755755 C258.396899,76.7638682 247.100512,81.2448815 219.55134,103.1 L207.015595,113.013889 C205.254418,114.406716 202.988977,114.995293 200.772554,114.635873 L196.85134,114 C184.65134,112.1 169.4,112.4 160,116.4 C152.5,119.6 133.65134,120.5 124.85134,116.4 C113.55134,111.1 109.25134,110.2 97.3513397,110.1 C87.4513397,110.1 82.3513397,111.2 71.1513397,115.4 C58.8513397,120.1 46.5513397,119.7 34.2513397,114.2 C30.1513397,112.4 6.45133971,89 2.15133971,83.9 C-0.248660286,81.2 -2.55783688,74.6426422 6.5659396,71.6231802 C8.29864595,71.0497508 67.9398475,70.2025158 78.3476586,69.7588055 C78.5354131,69.8378463 78.7231857,69.9087562 78.9104887,69.972259 L152.80413,68.125314 C157.788243,68.412131 188.242258,67.4544987 188.151543,67 C187.95134,66.6 182.15134,60.1 176.45134,53.7 C167.05134,43.3 165.65134,42.1 162.65134,42.1 L159.54824,42.1 C156.816305,35.6339326 151.657359,29.898898 145.127102,27 L169.730536,27 Z"></path>
<path class="ci-toggle" d="M135.813999,25 C150.264929,25 161.375181,38.8465459 161.687591,51.6697756 C161.895864,60.2185954 159.217041,65.6967181 153.651124,68.1041437 L78.9104887,69.972259 C75.0547383,68.6650128 71,64.2188956 71,50.3194781 C71,36.4200606 82.8828392,25 97.3337698,25 L135.813999,25 Z M138.5,59 C145.403559,59 151,53.8512746 151,47.5 C151,41.1487254 145.403559,36 138.5,36 C131.596441,36 126,41.1487254 126,47.5 C126,53.8512746 131.596441,59 138.5,59 Z"></path>
<ellipse class="ci-toggle-eye" cx="138.5" cy="47.5" rx="12.5" ry="11.5"></ellipse>
<path class="ci-primary" d="M11.8403595,142.292105 C9.02052886,137.57531 8.96134084,132.274212 15.0856579,130.193672 C18.5888672,129.793672 26.5756602,128.093672 31.7831336,126.193672 C41.437155,122.633165 44.9404695,121.581342 54.2191352,121.074212 C63.4978008,120.567082 68.0460847,122.693672 77.7982622,126.393672 C86.6983076,129.793672 88.6866157,130.193672 96.7345291,130.193672 C104.782443,130.193672 105.019966,129.793672 113.920011,126.393672 C123.672189,122.693672 124.425028,121.074212 137.396371,121.074212 C150.367714,121.074212 152.312472,122.693672 162.06465,126.393672 C170.964695,129.793672 172.953003,130.193672 181.000917,130.193672 C186.965841,130.193672 191.415864,129.693672 194.161622,128.593672 C199.842502,126.393672 203.469785,125.461868 205.633948,129.74377 C207.715571,133.862365 208.480027,138.498502 199.958707,141.298502 C195.792728,142.698502 191.13182,143.474212 181.000917,143.474212 C169.481598,143.474212 145.77946,133.993672 138.867723,133.993672 C131.861304,133.993672 129.210227,134.493672 120.594225,137.693672 C110.747367,141.393672 110.179279,143.074212 96.7345291,143.074212 C83.2897796,143.074212 82.7216916,141.393672 72.8748328,137.693672 C58.7673139,132.493672 50.6247192,132.493672 36.3278377,137.593672 C22.9777695,142.393672 15.0856579,147.72059 11.8403595,142.292105 Z" transform="translate(108.500000, 132.789207) scale(1, -1) translate(-108.500000, -132.789207)"></path>
</svg>