<svg viewBox="0 0 256 160" xmlns="http://www.w3.org/2000/svg" class="clusive-icon">
<style>
.ci-primary {
  fill: var(--CT_ciPrimaryColor, #636b82);
  opacity: var(--CT_ciPrimaryOpacity, 1);
}
.ci-toggle {
  fill: var(--CT_ciToggleColor, #ff554d);
  opacity: var(--CT_ciToggleOpacity, 1);
}
.ci-toggle-eye {
  fill: var(--CT_ciToggleEyeColor, #fbfbfb);
  opacity: var(--CT_ciToggleEyeOpacity, 1);
}
</style>
<path class="ci-toggle" d="M95.7,6 C79.2,8.8 66,24 65.8,40.5 C65.6,48.7 67.3,53.1 72.4,57.8 C81,65.7 95.2,68.4 128.5,68.4 C176.1,68.3 191.3,61 189.8,38.8 C188.5,21.9 175.9,8.4 158.8,5.9 C151.1,4.8 102.4,4.9 95.7,6 Z M162.3,50.9232978 C169.3,47.3232978 172.3,42.6232978 172.3,35.0232978 C172.3,28.8232978 170.2,24.5232978 165.3,20.8232978 C162.1,18.4232978 160.8,18.0232978 154.9,18.0232978 C147.4,18.0232978 144.3,19.6232978 140.3,25.5232978 C132.5,36.9232978 140.8,52.4232978 154.8,52.5232978 C157.2,52.5232978 160.5,51.8232978 162.3,50.9232978 Z"></path>
<path class="ci-toggle-eye" d="M162.3,50.9 C169.3,47.3 172.3,42.6 172.3,35 C172.3,28.8 170.2,24.5 165.3,20.8 C162.1,18.4 160.502673,18 154.602673,18 C147.102673,18 144.002673,19.6 140.002673,25.5 C132.202673,36.9 140.502673,52.4 154.502673,52.5 C156.902673,52.5 160.5,51.8 162.3,50.9 Z"></path>
<path class="ci-primary" d="M198.1,121.31626 C196.9,120.11626 196,117.91626 196,116.41626 C196,113.71626 199.4,109.71626 201.6,109.71626 C202.3,109.71626 206.4,108.21626 210.8,106.41626 C228.2,99.0162598 237.1,89.8162598 234.5,81.6162598 C233.6,78.7162598 226.1,70.7162598 224.4,70.7162598 C223.6,70.7162598 223,70.3162598 223,69.9162598 C223,68.6162598 210.5,62.7162598 201.2,59.7162598 C178.6,52.4162598 157,49.5162598 126.5,49.8162598 C107.9,49.9162598 98.3,50.5162598 87,52.2162598 C47.4,57.9162598 18.5,73.2162598 21.5,86.9162598 C23.1,93.9162598 33.4,101.51626 49.8,107.71626 C54.3,109.51626 58.5,111.71626 59,112.71626 C61.6,117.61626 58.8,122.71626 53.6,122.71626 C50.2,122.71626 36.4,117.01626 28.4,112.41626 C21.4,108.31626 12.6,99.3162598 10.3,94.0162598 C9.3,91.7162598 8.7,87.5162598 8.7,83.5162598 C8.7,77.7162598 9.1,76.1162598 11.6,72.6162598 C19.2,61.6162598 30.1,54.3162598 48.5,48.0162598 C57,45.1162598 73.6,41.1162598 80.5,40.2162598 C83.3,39.8162598 86.2,39.4162598 87,39.2162598 C87.8,39.0162598 91.2,38.5162598 94.5,38.2162598 C97.8,37.9162598 103,37.4162598 106,37.1162598 C112.7,36.4162598 145.7,36.4162598 152.5,37.2162598 C155.3,37.5162598 159.5,37.9162598 162,38.2162598 C180.6,40.1162598 197,43.9162598 211.5,49.7162598 C215.9,51.5162598 220.9,53.4162598 222.5,54.1162598 C230.5,57.2162598 241.4,66.8162598 245.2,74.2162598 C248.1,79.8162598 248.8,89.6162598 246.5,94.3162598 C242.1,103.51626 228,114.01626 211.6,120.21626 C202.1,123.81626 200.5,123.91626 198.1,121.31626 Z" transform="translate(128.285710, 79.858130) rotate(180.000000) translate(-128.285710, -79.858130)"></path>
<ellipse class="ci-primary" transform="translate(56.500000, 76.500000) rotate(145.000000) translate(-56.500000, -76.500000)" cx="56.5" cy="76.5" rx="12.5" ry="8.5"></ellipse>
<path class="ci-primary" d="M194.2,82.3900464 C188.1,76.5900464 196.1,66.9900464 207,66.8900464 C215.8,66.8900464 219.7,72.5900464 215,78.5900464 C210.5,84.2900464 198.6,86.4900464 194.2,82.3900464 Z" transform="translate(204.549565, 75.695023) rotate(227.000000) translate(-204.549565, -75.695023)"></path>
<path class="ci-primary" d="M120.5,102.30753 C116.1,100.00753 114,97.0075297 114,92.9075297 C114,86.4075297 122,81.1075297 130.1,82.2075297 C143.6,84.1075297 147.1,96.5075297 135.8,102.40753 C132.2,104.20753 124.3,104.20753 120.5,102.30753 Z" transform="translate(128.283115, 92.903765) rotate(180.000000) translate(-128.283115, -92.903765)"></path>
<path class="ci-primary" d="M78.3,158.870333 C75,157.270333 74,152.170333 76.6,149.670333 C78,148.270333 83.9,148.070229 127.3,148.070229 C181.5,148.070229 181,147.970333 181,153.970333 C181,160.270333 182.3,160.070333 128.9,159.970333 C97.4,159.970333 79.7,159.570333 78.3,158.870333 Z" transform="translate(128.063171, 154.035166) rotate(180.000000) translate(-128.063171, -154.035166)"></path>
</svg>