<svg viewBox="0 0 256 160" xmlns="http://www.w3.org/2000/svg" {% if class %}class="{{ class }}"{% endif %} role="img"><title>{% if title %}{{ title }}{% else %}car active{% endif %}</title><path class="ci-primary" d="M119.429603,134.676706 C143.792147,131.789914 152.862487,122.28713 158.7,114.737474 C163.269837,108.827303 167.856757,101.637474 166.4,101.637474 C166.066667,100.904141 160.079285,100.070807 148.437854,99.1374741 C144.340346,98.7013852 140.463921,98.4833408 136.80858,98.4833408 C128.071393,98.4833408 112.046867,98.0695958 88.7350045,97.2421057 C79.2353408,97.2421057 68.6045651,99.2972984 67.1,100.637474 C66.0969566,101.530925 65.3969566,102.330925 65,103.037474 C63.9,104.337474 63.2247942,105.943962 63,106.637474 C62.1721622,109.191435 59.9,111.137474 56.6,111.137474 C48.6,111.137474 13.7,100.537474 8.4,96.4374741 C6.6,95.1374741 4.1,91.9374741 2.8,89.3374741 C0.6,84.8374741 0.5,83.8374741 0.7,64.1374741 C0.8,52.8374741 1.3,42.3374741 1.9,40.9374741 C3.1,37.6374741 6.6,35.2374741 11.1,34.5374741 C11.8442072,34.1374741 13.3072477,33.9374741 15.4891217,33.9374741 C11.1,51.1709947 23,74.6374741 47.5,74.6374741 C72,74.6374741 85.8570909,51.1709947 79.3,33.1374741 C83.590003,33.1374741 89.6566697,33.1374741 97.5,33.1374741 C105.8,33.1374741 123.203557,33.1374741 138.073459,33.1374741 C148.024486,33.1374741 157.466667,33.1374741 166.4,33.1374741 C162.963281,51.8127633 173,74.6374741 200,74.6374741 C228.3,74.6374741 238.903543,50.6448034 233.838399,33.1374741 C233.838399,33.1374741 238.752376,33.1374741 248.580329,33.1374741 C257.980329,34.5374741 255.7,67.9374741 254.1,73.3374741 C250,86.2374741 241.2,95.3374741 229.3,99.1374741 C225.9,100.137474 213.2,101.937474 201.8,103.137474 L181.5,105.237474 L176,111.337474 C163.6,125.237474 145.2,136.437474 129.8,139.537474 C119.9,141.537474 118.436071,141.623396 117.6,138.937474 C117.380033,138.230818 117.380033,135.31029 119.429603,134.676706 Z" transform="translate(128.095297, 87.068737) scale(-1, 1) rotate(180.000000) translate(-128.095297, -87.068737)"></path><path class="ci-primary" d="M47.5,160 C32.3121694,160 20,147.687831 20,132.5 C20,117.312169 32.3121694,105 47.5,105 C62.6878306,105 75,117.312169 75,132.5 C75,147.687831 62.6878306,160 47.5,160 Z M47.5,152 C58.2695526,152 67,143.269553 67,132.5 C67,121.730447 58.2695526,113 47.5,113 C36.7304474,113 28,121.730447 28,132.5 C28,143.269553 36.7304474,152 47.5,152 Z"></path><path class="ci-primary" d="M200.5,160 C185.312169,160 173,147.687831 173,132.5 C173,117.312169 185.312169,105 200.5,105 C215.687831,105 228,117.312169 228,132.5 C228,147.687831 215.687831,160 200.5,160 Z M200.5,152 C211.269553,152 220,143.269553 220,132.5 C220,121.730447 211.269553,113 200.5,113 C189.730447,113 181,121.730447 181,132.5 C181,143.269553 189.730447,152 200.5,152 Z"></path><path class="ci-toggle" d="M86.9117324,41.1743434 L116.681381,35.9092697 C118.010499,35.5676119 117.034646,35.9092697 117.783215,38.024437 C117.936082,38.4563823 118.679208,39.3543768 119.364503,39.4474633 C126.472598,40.4129866 128,40.8399569 131.834843,41.811643 C135.000837,42.6138535 138.8525,43.8543764 142.231244,45.6568152 C144.806035,47.0303732 147.297248,48.1979008 148.593344,50 C151.690586,54.3064248 153.414672,58.0275117 152.913228,62.5400563 C152.318544,67.8916862 151.479216,71.0185929 149.6634,72.8790046 C149.158758,73.3960407 148.575344,73.8143635 147.887694,74.1519405 C145.613308,75.2684673 142.284911,75.6541333 136.80858,75.6541333 C128.082038,75.6541333 112.228233,76.0283825 89.2471643,76.776881 C88.1028306,76.776881 70.8046335,76.7381474 68.3273789,72.8790046 C67.4039705,71.4404907 66.1023356,69.2378851 66.0145492,66.6973102 C65.5899837,54.3990544 74.5019546,42.8264405 86.9117324,41.1743434 Z M127.5,74 C133.851275,74 139,68.8512746 139,62.5 C139,56.1487254 133.851275,51 127.5,51 C121.148725,51 116,56.1487254 116,62.5 C116,68.8512746 121.148725,74 127.5,74 Z"></path><path class="ci-toggle-eye" d="M127.5,74 C133.851275,74 139,68.8512746 139,62.5 C139,56.1487254 133.851275,51 127.5,51 C121.148725,51 116,56.1487254 116,62.5 C116,68.8512746 121.148725,74 127.5,74 Z"></path></svg>