<svg viewBox="0 0 395 395" xmlns="http://www.w3.org/2000/svg"{% if class %}class="{{ class }}"{% endif %} role="img" focusable="false"><title>{% if title %}{{ title }}{% else %}Merriam-Webster{% endif %}</title><path fill="currentColor" d="M324.987 378.38c.934 0 1.767-.07 1.767-1.183 0-.904-.817-1.071-1.583-1.071h-1.5v2.254zm-1.316 4.08h-1.1v-7.267h2.766c1.717 0 2.563.637 2.563 2.066 0 1.304-.813 1.871-1.88 2.004l2.063 3.196h-1.233l-1.917-3.146h-1.262zm1.333 1.616c2.846 0 5.1-2.23 5.1-5.263 0-2.983-2.254-5.233-5.1-5.233-2.883 0-5.138 2.25-5.138 5.233 0 3.034 2.255 5.263 5.138 5.263m-6.4-5.263c0-3.62 2.933-6.283 6.4-6.283 3.433 0 6.362 2.663 6.362 6.283 0 3.646-2.929 6.317-6.362 6.317-3.467 0-6.4-2.67-6.4-6.317m19.65-207.116h15.312v-5.625h-15.312zm-54.342 58.383c6.283.017 9 4.492 9.017 10.325 0 .325-.017.659-.025 1.009l-19.054-.171c.487-5.55 4.17-11.17 10.062-11.163m16.396 28.967c-3.237 3.408-6.425 6.258-11.033 6.258-.234 0-.463-.008-.692-.016-13.083-.792-14.888-10.663-14.908-21.917l23.004.17c2.483-.012 3.5-.32 3.5-3.607-.008-7.334-6.296-12.442-15.013-12.459-10.341.025-18.65 7.742-18.666 21.467.016 13.983 8.237 21.708 18.666 21.725 4.271-.008 7.242-.58 7.917-.963l10.033-10.429ZM150.32 230.355c6.275.021 8.992 4.496 9.009 10.338 0 .325-.008.658-.017.996l-19.054-.159c.479-5.554 4.162-11.175 10.062-11.175m5.35 35.234c-.229 0-.458-.008-.679-.021-13.083-.787-14.896-10.667-14.92-21.92l23.008.17c2.491-.008 3.5-.317 3.5-3.604-.013-7.325-6.288-12.442-15.017-12.463-10.342.03-18.642 7.75-18.667 21.475.025 13.975 8.242 21.704 18.667 21.725 4.28-.008 7.254-.583 7.917-.966l10.033-10.43-2.804-.229c-3.238 3.409-6.425 6.263-11.038 6.263m166 3.675v.004l-.245-.004zm-21.745-.175h-.004l.004-.021zm16.008-32.721-1.158 1.867V228.15l-2.034-.758-.05.162-.07-.162c-3.38 1.537-8.346 2.904-12.305 3.408l-.154 2.109c2.563.17 5.109.595 7.309 1.687l-.096 30.967-7.484 1.279-.141 2.425 22.091.17.171-2.424-7.587-1.621.133-20.996c.008-1.437 3.938-11.137 8.533-11.146.996-.008 2.45.742 3.338 1.409l2.254.22 1.63-5.745c-1.476-1.263-4.917-1.471-6.676-1.48-4.57.025-5.883 5.255-7.704 8.713m-101.658-86.325c-1.413-1.217-4.684-1.413-6.367-1.421-4.354.025-5.604 5.008-7.333 8.288l-1.1 1.754.008-9.559-1.934-.737-.05.167-.075-.159c-3.212 1.454-7.941 2.759-11.708 3.246l-.146 2.008c2.438.171 4.858.58 6.954 1.621l-.096 29.446-7.112 1.213-.146 2.308h.18v.004h.537l20.32.175.167-2.317-7.233-1.554.146-19.967c0-1.362 3.741-10.587 8.104-10.595.946-.008 2.325.704 3.167 1.337l2.158.213zm-74.909.808c5.938.008 8.5 4.238 8.517 9.763 0 .308-.008.633-.017.954l-18.02-.158c.458-5.259 3.941-10.567 9.52-10.559m1.175 38.434c4.054 0 6.867-.546 7.504-.913l9.517-9.892-2.675-.22c-3.075 3.225-6.092 5.929-10.462 5.929-.213 0-.425 0-.638-.017-12.387-.75-14.092-10.087-14.117-20.75h.259l21.516.167c2.359 0 3.33-.309 3.33-3.425-.017-6.946-5.963-11.792-14.234-11.8-9.8.016-17.658 7.337-17.687 20.346.029 13.237 7.812 20.554 17.687 20.575m197.605-1.359h-.217zm-23.521 0h-.221zm-23.83 0h-.22zm-19.112-.179h-.004l.004-.042zm-.188-34.733h-.004l.008-.046zm60.867 8.291c.021-8.12-4.083-12.712-12.704-12.941-.033-.008-.08-.008-.12-.008-1.05 0-2.718.416-5.06 2.241l-6.028 5.159c-2.167-4.1-6.284-7.304-11.13-7.317-3.183-.008-4.345.438-6.841 2.396l-5.767 3.733v-5.462l-1.854-.734c-3.217 1.459-7.742 2.763-11.35 3.246l-.188 1.563c2.342.175 4.659.583 6.671 1.625l-.054 29.791-6.296 1.217-.133 2.113 19.458.17.171-1.916-6.562-1.754.137-26.7c2.854-2.188 6.12-4.805 9.558-4.796 7.3.008 7.48 7.387 7.488 13.904v17.762l-6.296 1.413-.125 1.917 19.458.17.171-1.916-6.562-1.754.137-26.784c2.788-2.054 6.534-4.2 10.017-4.2 6.567.017 7.02 5.554 7.037 11.413 0 .991-.008 1.979-.008 2.958v16.783l-6.295 1.413-.134 1.917 19.163.17.17-1.916-6.262-1.754zM69.616 188.226l-.208-.004h.208zm57.113-.004v.004l-.254-.004zm-22.621-.175h-.004l.004-.025zm-34.15-1.991-7.471-1.555 4.158-44.979.392-1.108 20.046 48.354 1.108.104 19.492-47.946.537.988 3.842 44.767-7.983 1.204-.146 2.341 22.966.171.171-2.341-6.975-1.555-4.996-49.683 7.821-1.192-.02-.17.17-.017-.095-1.992-17.059-.162-17.037 41.433-17.275-41.333-17.354-.1-.267 2.154 8.504 1.566-4.78 49.65-6.574 1.23-.138 2.341 18.792.171zm106.304 2.166v.004l-.237-.004zm-13.608-3.525-7.113 1.213-.141 2.316 21.033.171.17-2.316-7.233-1.555.138-19.966c.004-1.363 3.754-10.592 8.108-10.596.946-.008 2.325.704 3.171 1.342l2.154.208 1.559-5.471c-1.413-1.208-4.684-1.412-6.363-1.425-4.354.03-5.608 5.008-7.337 8.292l-1.092 1.754v-9.558l-1.93-.734-.053.163-.075-.163c-3.213 1.459-7.942 2.763-11.705 3.246l-.146 2.008c2.434.171 4.855.584 6.959 1.621zm52.296-31.237v-.021zm-.846 34.587h-.008l.008-.058zm7.396-3.05-7.43 1.209-.141 2.02 21.287.171v-.17h.171v-1.85l-7.412-1.55.137-35.721-1.587-.734c-3.28 1.459-7.913 2.763-11.6 3.246l-.146 2.008c2.391.171 4.758.584 6.816 1.621zm2.708-46.675c1.908 0 3.725-1.537 3.733-3.625-.008-2.137-1.596-4.054-3.733-4.062-2.08.016-3.588 2.079-3.588 4.062.008 1.946 1.738 3.625 3.588 3.625m32.925 30.967v2.679l-.175 8.92c-2.458 1.53-6.27 3.513-8.554 3.505-3.025-.008-6.167-2.137-6.175-4.933-.025-5.509 5.866-7.067 14.904-10.171m0-.175v.05l-2.113.67c.696-.237 1.375-.466 2.113-.72m-.3 19.375-.046.008.096-1.217zm-12.913.104h.192c4.954-.125 8.963-1.987 12.75-4.962l-.212 5.02c.012.008.029.013.07.013.017 0 .084-.013.105-.017v.017l.154-.033c1.533-.175 9.491-1.975 13.087-2.646l.25-.042-1.237-1.917-5.813-.604.008-24.887c-.008-7.196-3.116-10.463-8.15-10.471-.237 0-.479-.004-.72-.004-.717 0-1.48.042-2.15.433l-9.117 5.45c-.925.6-4.188 2.38-4.338 3.963l-.304 4.525.625.483 4.758-.954c.588-.133 1.45-.1 1.45-1.088v-.137a39.413 39.413 0 0 1-.087-2.258c.025-3.171.767-5.538 6.5-6.355a4.04 4.04 0 0 1 .62-.054c2.884.02 4.588 3.05 4.597 8.913v6.008c-3.917 1.217-8.2 2.9-12.784 4.43-3.466 1.124-8.841 2.774-8.841 9.65.016 3.245 3.725 7.516 8.587 7.524m21.85 72.713-.233.22c-1.875 1.888-4.78 4.8-7.113 4.78-4.446-.1-6.179-3.154-6.208-8.742 0-.25 0-.492.02-.733V234.56h.288l11.846.166.17-4.141-12.474-.171.17-10.604-2.137-.171c-1.708 5.954-6.42 9.479-11.012 12.808l-.08 2.108h.175v.004h.004v.167h5.9l-.17 25.508c.008 7.975 5.141 10.859 9.754 10.867.187 0 .358-.008.537-.008 6.521-.325 11.013-6.817 11.021-6.825l-.396-2.65zM132.22 214.11l-.483-.133.487.12zm-7.613-3.975h.238zm-54.02 4.308.008-.004.53 1.675zm7.054-3.941h.008l-.017.104zm66.908 1.808.13-2.175-20.242-.171-.171 2.183 7.904 2.117-1.18 3.37-13.253 37.438c-1.446-4.345-12.3-37.041-13.042-39.816l1.017-1.584 6.6-.983.145-2.383-21.887-.146.008.17H90.4v2.213l5.996 1.375 1.092 1.992c-.759 2.804-12.105 35.02-13.625 39.346l-13.113-40.859.392-.104 6.379-1.579.3-2.375h-.167v-.008h-.804l-21.804-.22-.213 2.224 7.788 1.934 17.967 56.737 2.75.12 16.362-45.14 15.175 44.858 2.917.137 19.841-56.825zm48.025 15.554c-1.35 0-2.596.254-3.9.425l-6.95 4.425 1.004.846c1.88-.575 3.759-.908 5.55-.908 9.688.02 13.98 9 13.992 18.116-.012 9.45-4.142 17.454-12.667 17.471-5.6-.008-8.941-3.867-8.95-9.442v-55.462l-1.716-.767c-3.492 1.546-7.738 2.904-11.675 3.417l-.092 1.587c2.546.163 4.362.58 6.575 1.684l-.154 44.241c0 2 .016 3.971.016 5.955 0 3.529-.05 7.07-.304 10.787l1.58.854 3.195-3.1c2.646 1.6 5.996 2.85 9.05 2.859 15.109-.025 21.655-10.871 21.675-22.638-.02-13.287-5.987-20.333-16.229-20.35m19.092 28.4v-.017l.246.017zm6.375-18.792c0-4.62 3.342-7.47 7.217-7.479 5.329.008 7.9 4.104 7.916 9.53l2.896.17.325-8.337h-.17l.112-.13c-3.304-2.945-7.013-3.766-11.234-3.766-6.533.017-12.62 4.52-12.629 12.137.096 15.842 20.634 9.059 20.45 19.821-.016 4.975-3.104 8.496-7.966 8.504h-.213c-6.1-.116-9.887-5.137-10.05-11.666l-3.2-.163.013.171h-.013l.07.817.838 10.996c3.709 2.116 7.784 2.675 11.763 2.675 7.6-.017 15.154-4.205 15.162-13.375-.079-15.225-21.475-10.788-21.287-19.905M26.708 192.595c0 47.183 19.109 89.842 50.025 120.77 30.921 30.918 73.584 50.018 120.771 50.026 47.175-.008 89.842-19.108 120.763-50.025 30.916-30.93 50.02-73.588 50.02-120.771 0-47.18-19.104-89.842-50.02-120.763-30.921-30.92-73.588-50.025-120.763-50.025-47.187 0-89.85 19.105-120.77 50.025-30.917 30.921-50.026 73.584-50.026 120.763m-11.941 0C14.775 91.67 96.583 9.87 197.504 9.87c100.917 0 182.721 81.8 182.73 182.725-.009 100.925-81.813 182.73-182.73 182.738-100.92-.009-182.73-81.813-182.737-182.738"/></svg>