<svg viewBox="0 0 395 395" xmlns="http://www.w3.org/2000/svg"{% if class %}class="{{ class }}"{% endif %} role="img" focusable="false"><title>{% if title %}{{ title }}{% else %}Merriam-Webster{% endif %}</title><path fill="currentColor" d="M198.203 1.523C89.723 1.523 1.797 89.256 1.797 197.502c0 108.246 87.927 195.977 196.406 195.977 54.225 0 102.994-21.932 138.182-57.399 35.191-35.467 56.818-84.466 56.818-138.578 0-54.117-21.627-103.117-56.818-138.584C301.197 23.46 252.428 1.515 198.203 1.523zm0 1.688c107.53.012 193.304 86.98 193.313 194.293-.008 107.313-85.784 194.28-193.313 194.28-53.77 0-102.444-21.743-137.682-56.901-35.237-35.159-57.029-83.729-57.029-137.38v-.003c0-53.65 21.792-102.224 57.03-137.383C95.758 24.96 144.431 3.211 198.202 3.211zm-.7 11.562c-100.92 0-182.727 81.804-182.735 182.729.008 100.92 81.815 182.724 182.736 182.732 100.912-.008 182.718-81.811 182.726-182.732-.008-100.925-81.814-182.729-182.726-182.729zm0 11.938c47.172 0 89.84 19.106 120.765 50.027 30.912 30.921 50.025 73.585 50.025 120.764 0 47.18-19.113 89.836-50.025 120.77-30.925 30.912-73.593 50.017-120.764 50.025-47.188-.008-89.849-19.113-120.77-50.026-30.916-30.933-50.025-73.59-50.025-120.77 0-47.178 19.109-89.842 50.025-120.763 30.921-30.92 73.582-50.027 120.77-50.027zm26.702 108.83c-2.08.017-3.582 2.08-3.582 4.063.008 1.945 1.736 3.625 3.582 3.625 1.908 0 3.728-1.538 3.736-3.625-.008-2.138-1.594-4.055-3.736-4.063zm-169.957.65-.264 2.155 8.5 1.564-4.773 49.65-6.58 1.231-.133 2.342 18.791.17.172-2.344-7.477-1.55 4.164-44.981.387-1.108 20.047 48.352 1.107.105 19.495-47.947.537.99 3.84 44.764-7.983 1.207-.142 2.342 22.966.17.17-2.344-6.976-1.55-4.992-49.686 7.818-1.19-.022-.174.17-.013-.091-1.992-17.06-.163-17.036 41.434-17.28-41.334-17.355-.1zm200.154 16.768c-.716 0-1.475.046-2.146.437l-9.121 5.452c-.925.6-4.186 2.38-4.332 3.963l-.307 4.523.625.486 4.758-.955c.592-.133 1.45-.1 1.45-1.088v-.136c-.043-.784-.087-1.542-.087-2.258.03-3.171.77-5.539 6.504-6.356a4 4 0 0 1 .621-.054c2.88.02 4.582 3.05 4.59 8.912v6.008c-3.912 1.216-8.2 2.9-12.78 4.43-3.466 1.12-8.84 2.775-8.84 9.65.018 3.245 3.72 7.517 8.587 7.525h.189c4.954-.125 8.963-1.992 12.75-4.963l-.209 5.02c.008.008.03.015.067.015.02 0 .082-.015.107-.02v.02l.154-.033c1.53-.175 9.493-1.976 13.084-2.646l.25-.041-1.232-1.918-5.813-.604.008-24.887c-.008-7.195-3.12-10.462-8.154-10.47-.233 0-.475-.012-.72-.012h-.003zm65.133.3c-1.046 0-2.713.42-5.055 2.245l-6.033 5.156c-2.162-4.1-6.279-7.302-11.129-7.314-3.183-.008-4.346.436-6.838 2.394l-5.77 3.733v-5.463l-1.855-.733c-3.212 1.459-7.737 2.763-11.35 3.246l-.187 1.561c2.346.18 4.661.585 6.678 1.627l-.057 29.793-6.296 1.217-.137 2.113 19.459.17.17-1.918-6.559-1.752.135-26.701c2.858-2.188 6.12-4.805 9.562-4.797 7.3.008 7.478 7.388 7.487 13.904v17.764l-6.295 1.412-.13 1.918 19.458.17.172-1.918-6.559-1.752.133-26.787c2.788-2.054 6.534-4.201 10.022-4.201 6.566.02 7.02 5.555 7.033 11.414 0 .991-.004 1.982-.004 2.96v16.784l-6.297 1.412-.137 1.918 19.166.17.172-1.918-6.264-1.752.13-23.125c.024-8.12-4.079-12.712-12.7-12.941-.037-.008-.079-.008-.125-.008zm-178.994.01c-9.796.017-17.66 7.334-17.686 20.346.025 13.238 7.815 20.556 17.686 20.576 4.058 0 6.864-.547 7.506-.914l9.514-9.89-2.676-.221c-3.075 3.225-6.09 5.93-10.457 5.93-.213 0-.43 0-.643-.022-12.383-.746-14.092-10.083-14.113-20.746h.262l21.513.166c2.359 0 3.33-.307 3.33-3.424-.016-6.946-5.961-11.792-14.236-11.8zm57.012.004-.053.168-.076-.158c-3.213 1.454-7.94 2.757-11.703 3.24l-.147 2.014c2.438.171 4.86.58 6.951 1.621l-.091 29.446-7.116 1.212-.146 2.309h.176v.004h.543l20.314.174.174-2.32-7.236-1.551.148-19.967c0-1.363 3.737-10.588 8.1-10.596.945-.008 2.328.705 3.17 1.338l2.16.213 1.556-5.47c-1.416-1.217-4.688-1.414-6.367-1.423-4.354.025-5.603 5.01-7.332 8.29l-1.1 1.753.008-9.558-1.933-.739zm-29.905.004c-3.212 1.459-7.942 2.763-11.705 3.246l-.146 2.01c2.437.171 4.859.582 6.959 1.62l-.098 29.45-7.115 1.208-.145 2.322 21.036.17.17-2.323-7.233-1.55.135-19.965c.008-1.363 3.76-10.591 8.11-10.6.945-.004 2.323.706 3.17 1.344l2.155.209 1.563-5.47c-1.417-1.21-4.688-1.414-6.375-1.427-4.346.03-5.597 5.012-7.326 8.295l-1.092 1.754v-9.56l-1.934-.733-.05.164-.079-.164zm58.88 0c-3.28 1.459-7.912 2.763-11.604 3.246l-.147 2.01c2.396.171 4.765.582 6.819 1.62l-.096 29.75-7.426 1.208-.144 2.022 21.287.17v-.17h.17v-1.85l-7.408-1.55.134-35.721-1.586-.735zm-87.163 2.48h.002c5.936.01 8.501 4.238 8.518 9.763 0 .308-.005.634-.014.955l-18.021-.159c.454-5.257 3.941-10.565 9.515-10.558zm132.133 2.118v.045h-.008l.008-.045zm-56.545.47v.02h-.006l.006-.02zm123.303 12.634v5.625h15.312v-5.625h-15.312zm-81.121 3.04v.051l-2.13.674c.7-.237 1.388-.47 2.13-.724zm0 .176v2.68l-.174 8.92c-2.458 1.53-6.275 3.512-8.559 3.504-3.02-.008-6.165-2.138-6.173-4.934-.025-5.5 5.864-7.066 14.906-10.17zm-.254 18.004-.043 1.196-.053.007.096-1.203zm14.803.412v.043h-.006l.006-.043zm-57.58.284v.058h-.006l.006-.058zm-144.694.234h.21v.004l-.21-.004zm57.063 0h.257v.004l-.257-.004zm49.554 0h.233v.004l-.233-.004zm2.914 14.346c-3.495 1.545-7.738 2.903-11.675 3.416l-.094 1.588c2.542.162 4.364.58 6.576 1.68l-.152 44.245c0 2 .013 3.97.013 5.953 0 3.525-.05 7.067-.308 10.784l1.58.855 3.2-3.096c2.645 1.592 5.992 2.846 9.046 2.854 15.108-.025 21.657-10.866 21.674-22.633-.017-13.292-5.987-20.335-16.225-20.355-1.35 0-2.596.255-3.904.425l-6.95 4.43 1.008.842c1.88-.57 3.76-.904 5.551-.904 9.684.016 13.978 8.998 13.987 18.11-.008 9.455-4.142 17.455-12.663 17.472-5.604-.008-8.94-3.867-8.949-9.442V208.24l-1.715-.765zm-54.5 7.396-.173 2.182 7.9 2.113-1.178 3.371-13.25 37.438c-1.441-4.325-12.305-37.038-13.047-39.813l1.018-1.588 6.6-.982.144-2.385-21.887-.14.008.17h-.18v2.208l5.997 1.375 1.091 1.993c-.754 2.808-12.1 35.02-13.625 39.35l-13.107-40.864.387-.104 6.379-1.58.3-2.369-.166-.004v-.006l-.804-.004-21.805-.22-.213 2.23 7.79 1.928 17.964 56.738 2.75.125 16.363-45.142 15.176 44.855 2.92.137 19.838-56.82 6.916-1.846.129-2.18-20.235-.166zm.168.166.237.004h-.237v-.004zm-46.97.371h.007l-.015.1.008-.1zm54.101 3.475.489.12-.006.009-.483-.13zm-61.15.463h.008l.529 1.674-.537-1.674zm179.508 5.195c-1.705 5.954-6.42 9.484-11.012 12.809l-.08 2.113h.18v.17h5.904l-.172 25.508c.008 7.983 5.151 10.846 9.76 10.863.179 0 .35-.008.533-.008 6.52-.325 11.011-6.818 11.02-6.826l-.4-2.645-.056-.318-.234.227c-1.88 1.883-4.778 4.796-7.111 4.779-4.45-.1-6.184-3.159-6.21-8.742 0-.25-.002-.497.014-.739v-22.265h.29l11.847.166.17-4.143-12.475-.17.168-10.61-2.136-.169zm62.648 7.756-.057.162-.068-.16c-3.38 1.533-8.342 2.9-12.305 3.404l-.156 2.11c2.563.17 5.108.595 7.313 1.69l-.094 30.968-7.488 1.273-.137 2.426 22.092.17.17-2.424-7.592-1.617.137-21c.008-1.434 3.933-11.138 8.529-11.147 1-.008 2.456.748 3.344 1.414l2.252.217 1.63-5.742c-1.475-1.267-4.917-1.47-6.675-1.478-4.571.025-5.885 5.248-7.705 8.707l-1.163 1.87v-10.085l-2.027-.758zm-87.64.068c-6.534.017-12.62 4.518-12.627 12.135.095 15.842 20.628 9.062 20.449 19.82-.017 4.98-3.109 8.496-7.967 8.508h-.215c-6.096-.12-9.89-5.14-10.053-11.666l-3.197-.162.01.17h-.01l.072.812.838 10.997c3.709 2.12 7.783 2.675 11.762 2.675 7.6-.016 15.154-4.2 15.162-13.37-.083-15.226-21.475-10.788-21.287-19.909 0-4.62 3.338-7.472 7.213-7.48 5.333.008 7.903 4.108 7.92 9.529l2.892.172.325-8.334h-.17l.113-.133c-3.304-2.946-7.014-3.764-11.23-3.764zm60.06.014c-10.337.03-18.651 7.746-18.668 21.47.017 13.98 8.243 21.704 18.668 21.725 4.27-.008 7.245-.58 7.92-.967l10.03-10.425-2.807-.233c-3.234 3.413-6.423 6.262-11.032 6.262-.233 0-.466-.007-.691-.02-13.088-.791-14.891-10.663-14.912-21.918l23.004.172c2.487-.008 3.506-.322 3.506-3.61-.013-7.328-6.297-12.435-15.018-12.456zm-133.6.28c-10.341.024-18.643 7.745-18.668 21.47.025 13.98 8.24 21.708 18.668 21.725 4.28-.008 7.248-.584 7.914-.967l10.036-10.43-2.807-.225c-3.238 3.405-6.425 6.258-11.037 6.258-.23 0-.46-.007-.682-.015-13.083-.788-14.897-10.668-14.918-21.922l23.006.172c2.492-.013 3.5-.318 3.5-3.606-.008-7.329-6.282-12.444-15.012-12.46zm132.35 2.325v.002c6.28.017 9 4.489 9.018 10.327 0 .325-.02.653-.032 1.007l-19.048-.174c.483-5.55 4.17-11.174 10.062-11.162zm-133.598.278h.002c6.274.017 8.991 4.497 9.008 10.334 0 .325-.007.658-.016 1l-19.054-.164c.483-5.55 4.166-11.169 10.06-11.17zm61.348 25.892.244.016h-.242l-.002-.016zm121.281 101.117c-5.2 0-9.6 3.996-9.6 9.416 0 5.476 4.4 9.477 9.6 9.477 5.142 0 9.54-4.001 9.54-9.476 0-5.421-4.398-9.417-9.54-9.417zm0 1.57c4.271 0 7.645 3.376 7.645 7.846 0 4.55-3.374 7.9-7.645 7.9-4.325 0-7.7-3.35-7.7-7.9 0-4.47 3.375-7.845 7.7-7.845zm-3.65 2.427v10.896h1.644v-4.72h1.9l2.876 4.72h1.85l-3.1-4.8c1.6-.197 2.824-1.051 2.824-2.997 0-2.15-1.275-3.1-3.85-3.1h-4.144zm1.644 1.4h2.25c1.15 0 2.375.25 2.375 1.6 0 1.675-1.25 1.775-2.65 1.775h-1.975v-3.375z"/></svg>