<svg viewBox="0 0 256 160" xmlns="http://www.w3.org/2000/svg" {% if class %}class="{{ class }}"{% endif %} role="img" focusable="false"><title>{% if title %}{{ title }}{% else %}spaceship{% endif %}</title><path class="ci-primary" d="M122.5,87.335704 C118.2,87.0531388 107,84.2274863 104,82.7204716 C102.6,82.0611527 101.020491,81.4717841 100.320491,81.4717841 C99.7204908,81.4717841 96.5,78.8587466 94.1,77.2575435 C87.5,73.0190648 79.3,63.8827885 75.4,56.5360921 C71.4,48.812642 68.6,37.6042205 69.3,31.6703503 C70.3,22.6282624 80.2,15.8466964 99,11.2314641 C108.1,8.97094208 113.8,8.5 129.5,8.5 C155.7,8.59418842 175.1,14.2454934 184,24.4178423 C186.2,26.9609295 186.5,28.0911905 186.5,34.8727564 C186.4,57.666353 168.6,78.952935 144.3,85.2635589 C137.7,86.9589504 128.6,87.9008345 122.5,87.335704 Z M124.4,79.1 C125.4,78 126,76 125.8,74.3 C125.6,72.1 124.5,71 121,69.3 C118.5,68.1 115.9,67.1 115.3,67.1 C113.8,67 111.5,65.2 104.5,58.8 C101.6,56.1 98.4,54 97.2,54 C94.6,54 91,57.7 91,60.2 C91,63 99.6,71.7 106,75.4 C116,81.3 121.5,82.4 124.4,79.1 Z" transform="translate(127.846289, 48.000000) rotate(180.000000) translate(-127.846289, -48.000000)"></path><path class="ci-primary" d="M197.964253,136.858403 C196.765113,135.693219 195.865758,133.55705 195.865758,132.100571 C195.865758,129.478908 199.263321,125.594964 201.461744,125.594964 C202.161243,125.594964 206.258304,124.138485 210.65515,122.39071 C228.042679,115.205412 236.936301,106.27234 234.338164,98.310254 C233.438809,95.4943943 225.944185,87.7265054 224.245403,87.7265054 C223.445976,87.7265054 222.846406,87.338111 222.846406,86.9497165 C222.846406,85.6874346 210.355365,79.9586165 201.062031,77.0456582 C178.478229,69.9574595 156.89371,67.1415998 126.41557,67.4328956 C107.828901,67.5299943 98.2357817,68.1125859 86.9438806,69.7632623 C47.3722628,75.2978832 18.4929761,90.1539707 21.490826,103.45648 C23.0896792,110.253383 33.382297,117.632878 49.7705427,123.652992 C54.2673175,125.400767 58.4643072,127.536936 58.9639489,128.507922 C61.5620854,133.265754 58.7640922,138.217783 53.5678192,138.217783 C50.170256,138.217783 36.3801468,132.683162 28.3858806,128.216626 C21.3908976,124.235583 12.5972048,115.496708 10.2988532,110.350482 C9.29956997,108.117214 8.7,104.039072 8.7,100.155128 C8.7,94.5234082 9.09971331,92.9698304 11.5979215,89.571379 C19.1924744,78.8905318 30.0846621,71.8023332 48.4714744,65.6851206 C56.9653823,62.8692609 73.5534847,58.9853165 80.4485393,58.111429 C83.2465325,57.7230345 86.144454,57.3346401 86.9438806,57.1404429 C87.7433073,56.9462456 91.1408704,56.4607526 94.4385052,56.1694567 C97.73614,55.8781609 102.932413,55.3926678 105.930263,55.101372 C112.625461,54.4216817 145.601809,54.4216817 152.396935,55.1984706 C155.194928,55.4897665 159.391918,55.8781609 161.890126,56.1694567 C180.476795,58.0143304 196.865041,61.7040776 211.354649,67.335797 C215.751495,69.083572 220.747912,70.9284456 222.346765,71.6081359 C230.341031,74.6181929 241.233219,83.9396596 245.030495,91.1249568 C247.928417,96.562479 248.627915,106.078143 246.329563,110.641778 C241.932717,119.57485 227.842823,129.770204 211.454577,135.790318 C201.961386,139.285868 200.362533,139.382967 197.964253,136.858403 Z" transform="translate(128.200000, 96.603134) rotate(180.000000) translate(-128.200000, -96.603134)"></path><ellipse class="ci-primary" transform="translate(56.500000, 89.500000) rotate(143.000000) translate(-56.500000, -89.500000)" cx="56.5" cy="89.5" rx="12.5" ry="8.5"></ellipse><path class="ci-primary" d="M194.2,96 C188.1,90.2 196.1,80.6 207,80.5 C215.8,80.5 219.7,86.2 215,92.2 C210.5,97.9 198.6,100.1 194.2,96 Z" transform="translate(204.549565, 89.304977) rotate(-125.000000) translate(-204.549565, -89.304977)"></path><path class="ci-primary" d="M120.5,119.92832 C116.1,117.62832 114,114.62832 114,110.52832 C114,104.02832 122,98.7283197 130.1,99.8283197 C143.6,101.72832 147.1,114.12832 135.8,120.02832 C132.2,121.82832 124.3,121.82832 120.5,119.92832 Z"></path><path class="ci-primary" d="M78.3,158.870333 C75,157.270333 74,152.170333 76.6,149.670333 C78,148.270333 83.9,148.070229 127.3,148.070229 C181.5,148.070229 181,147.970333 181,153.970333 C181,160.270333 182.3,160.070333 128.9,159.970333 C97.4,159.970333 79.7,159.570333 78.3,158.870333 Z"></path></svg>