<svg width="122" height="16" xmlns="http://www.w3.org/2000/svg"{% if class %}class="{{ class }}"{% endif %} role="img"><title>{% if title %}{{ class }}{% else %}translated by Google{% endif %}</title><path class="svg-icon-primary" d="M66.0996 10.4121l1.4766-4.752h1.1601l-2.5488 7.3184q-.5918 1.582-1.8809 1.582l-.205-.0175-.4043-.0762v-.879l.293.0235q.5507 0 .8554-.2226.3106-.2227.5098-.8145l.2402-.6445-2.2617-6.2695h1.1836zm-3.375-1.5117q0 1.4531-.668 2.3379-.668.8789-1.793.8789-1.2011 0-1.8573-.8496L58.3535 12h-.996V3h1.084v3.3574q.6562-.8144 1.8105-.8144 1.1542 0 1.8105.873.6621.873.6621 2.3906zm-15.3691-.123q0-1.459.6914-2.3438.6914-.8906 1.8105-.8906 1.1133 0 1.7637.7617V3h1.084v9h-.9961l-.0527-.6797q-.6504.7969-1.8106.7969-1.1016 0-1.7988-.9024-.6914-.9023-.6914-2.3554zm-3.463 3.3398q-1.289 0-2.0976-.8438-.8086-.8496-.8086-2.2675v-.1993q0-.9433.3575-1.6816.3632-.7441 1.0078-1.1602.6504-.4218 1.4062-.4218 1.2363 0 1.9219.8144.6855.8145.6855 2.332v.4512h-4.2949q.0235.9375.545 1.5176.5273.5742 1.3359.5742.5742 0 .9726-.2344.3985-.2343.6973-.621l.6621.5156q-.7969 1.2246-2.3906 1.2246zm-5.08-7.9922v1.5352h1.1836v.8378h-1.1836v3.9317q0 .3808.1582.5742.1582.1875.539.1875.1876 0 .5157-.0703V12q-.4277.1172-.832.1172-.7266 0-1.0957-.4395-.3692-.4394-.3692-1.248V6.498h-1.1543v-.8378h1.1543V4.125zM34.7285 12q-.0937-.1875-.1523-.668-.7559.7852-1.8047.7852-.9375 0-1.541-.5274-.5977-.5332-.5977-1.3476 0-.9902.75-1.5352.7559-.5508 2.1211-.5508h1.0547v-.498q0-.5684-.3398-.9023-.3399-.3399-1.002-.3399-.58 0-.9727.293-.3925.293-.3925.709h-1.0899q0-.4746.334-.914.3398-.4454.914-.7032.5801-.2578 1.2715-.2578 1.0958 0 1.7168.5507.6211.545.6446 1.506v2.9179q0 .873.2226 1.3887V12zm-5.6484 0h-1.084V3h1.084zm-3.6739-1.6816q0-.4395-.334-.6797-.328-.2461-1.1542-.4219-.8203-.1758-1.3067-.4219-.4804-.246-.7148-.586-.2285-.3398-.2285-.8085 0-.7793.6562-1.3184.6621-.539 1.6875-.539 1.0781 0 1.7461.5566.6738.5566.6738 1.4238h-1.0898q0-.4453-.3809-.7675-.375-.3223-.9492-.3223-.5918 0-.9258.2578-.334.2578-.334.6738 0 .3926.3106.5918.3105.1992 1.1191.3809.8145.1816 1.3184.4336.504.252.7441.6094.2461.3515.2461.8613 0 .8496-.6797 1.3652-.6796.5098-1.7636.5098-.7617 0-1.3477-.2695-.586-.2696-.9199-.75-.3281-.4864-.3281-1.0489h1.084q.0293.545.4335.8672.4102.3164 1.0782.3164.6152 0 .9843-.246.375-.252.375-.668zm-9.287-4.6582l.0351.7968q.7266-.914 1.8984-.914 2.0098 0 2.0274 2.2675V12h-1.084V7.8047q-.0059-.6856-.3164-1.0137-.3047-.3281-.955-.3281-.5274 0-.9259.2812-.3984.2813-.621.7383V12h-1.084V5.6602zM12.4804 12q-.0938-.1875-.1524-.668-.7558.7852-1.8047.7852-.9375 0-1.541-.5274-.5976-.5332-.5976-1.3476 0-.9902.75-1.5352.7558-.5508 2.121-.5508h1.0547v-.498q0-.5684-.3398-.9023-.3398-.3399-1.002-.3399-.58 0-.9726.293-.3926.293-.3926.709H8.5137q0-.4746.334-.914.3398-.4454.914-.7032.5801-.2578 1.2715-.2578 1.0957 0 1.7168.5508.621.5449.6445 1.5058v2.918q0 .873.2227 1.3887V12zM7.8047 6.6328q-.2461-.041-.5332-.041-1.0664 0-1.4473.9082V12h-1.084V5.6602H5.795l.0176.7324q.5332-.8496 1.5117-.8496.3164 0 .4805.082zM2.291 4.125v1.5352h1.1836v.8378H2.291v3.9317q0 .3808.1582.5742.1582.1875.539.1875.1876 0 .5157-.0703V12q-.4277.1172-.832.1172-.7266 0-1.0957-.4395-.3692-.4394-.3692-1.248V6.498H.0527v-.8378H1.207V4.125zm116.219 6.349c-.8653 0-1.4813-.3954-1.878-1.1727l5.178-2.142-.176-.44c-.3227-.8654-1.3053-2.4647-3.3147-2.4647-1.9953 0-3.6526 1.57-3.6526 3.8727 0 2.1713 1.6426 3.8726 3.8433 3.8726 1.7747 0 2.8013-1.0853 3.2267-1.7166l-1.32-.88c-.44.646-1.0414 1.0706-1.9067 1.0706zM111.6667.2872h1.6733v11.7126h-1.6733zM98.3333 4.2546c-2.1413 0-3.8873 1.6287-3.8873 3.8727 0 2.2293 1.746 3.8726 3.8873 3.8726 2.142 0 3.8874-1.6433 3.8874-3.8726 0-2.244-1.7454-3.8727-3.8874-3.8727zm10.3867.866h-.0587c-.382-.4553-1.1153-.866-2.0393-.866-1.936 0-3.622 1.6867-3.622 3.8727 0 2.1706 1.686 3.8726 3.622 3.8726.924 0 1.6573-.4106 2.0393-.88h.0587v.5414c0 1.4813-.792 2.2733-2.0687 2.2733-1.0413 0-1.6866-.748-1.9506-1.3787l-1.4814.616c.4254 1.0267 1.5547 2.2887 3.432 2.2887 1.9954 0 3.682-1.1733 3.682-4.034V4.454H108.72zm-19.0533-.866c-2.1414 0-3.8874 1.6287-3.8874 3.8727 0 2.2293 1.746 3.8726 3.8874 3.8726 2.142 0 3.8873-1.6433 3.8873-3.8726 0-2.244-1.7453-3.8727-3.8873-3.8727zM79.16 5.586v1.6387h3.922c-.1173.922-.4247 1.5953-.8927 2.0633-.5713.5707-1.464 1.2-3.0293 1.2-2.4153 0-4.3027-1.946-4.3027-4.3606 0-2.4147 1.8874-4.3607 4.3027-4.3607 1.302 0 2.2533.512 2.956 1.1707l1.156-1.1567C82.2913.8446 80.9893.1273 79.16.1273c-3.3073 0-6.088 2.6926-6.088 6 0 3.3073 2.7807 6 6.088 6 1.7847 0 3.1313-.5854 4.1853-1.6827 1.0827-1.0833 1.4194-2.6053 1.4194-3.8347 0-.38-.0294-.7313-.088-1.024H79.16M61.6406 8.7773q0-1.1074-.4277-1.7109-.4277-.6035-1.2305-.6035-1.0722 0-1.541.996v2.7423q.498.996 1.5527.996.7793 0 1.213-.6035.4335-.6035.4335-1.8164zm-13.2011.123q0 1.0782.4453 1.6876.4453.6094 1.2304.6094 1.0313 0 1.5059-.9258V7.3594q-.4863-.8965-1.4941-.8965-.797 0-1.2422.6152-.4453.6153-.4453 1.8223zm-4.6817-2.4667q-.6562 0-1.1016.4805-.4453.4746-.5507 1.3359h3.1758v-.082q-.047-.8262-.4454-1.2774-.3984-.457-1.078-.457zm-10.8281 4.7402q.5098 0 .9668-.2636.457-.2637.662-.6856V8.9238h-.8495q-1.9922 0-1.9922 1.166 0 .5098.3398.797.3399.287.873.287zm-22.248 0q.5097 0 .9667-.2636.457-.2637.6621-.6856V8.9238h-.8496q-1.9921 0-1.9921 1.166 0 .5098.3398.797.3398.287.873.287zM118.384 5.706c.6887 0 1.272.3507 1.4667.854l-3.4974 1.45c0-1.6326 1.1547-2.304 2.0307-2.304zm-20.0507 4.768c-1.1733 0-2.1853-.968-2.1853-2.3466 0-1.3934 1.012-2.3474 2.1853-2.3474 1.1734 0 2.186.954 2.186 2.3474 0 1.3786-1.0126 2.3466-2.186 2.3466zm8.436 0c-1.1733 0-2.0673-.9973-2.0673-2.3466 0-1.364.894-2.3474 2.0673-2.3474 1.1594 0 2.068.998 2.068 2.362 0 1.3494-.9086 2.332-2.068 2.332zm-17.1026 0c-1.1734 0-2.186-.968-2.186-2.3466 0-1.3934 1.0126-2.3474 2.186-2.3474 1.1733 0 2.186.954 2.186 2.3474 0 1.3786-1.0127 2.3466-2.186 2.3466z"/></svg>