<svg xmlns="http://www.w3.org/2000/svg" viewBox="0 0 802.75 512"><path d="M772.67 274.464H28.692c-10.273 0-18.599-8.326-18.599-18.599s8.326-18.599 18.599-18.599H772.67c10.273 0 18.599 8.326 18.599 18.599s-8.326 18.599-18.599 18.599zM772.67 125.668H28.692c-10.273 0-18.599-8.326-18.599-18.599S18.419 88.47 28.692 88.47H772.67c10.273 0 18.599 8.326 18.599 18.599s-8.326 18.599-18.599 18.599zM772.67 423.259H28.692c-10.273 0-18.599-8.326-18.599-18.599s8.326-18.599 18.599-18.599H772.67c10.273 0 18.599 8.326 18.599 18.599s-8.326 18.599-18.599 18.599z"/></svg>