<svg xmlns="http://www.w3.org/2000/svg" viewBox="0 0 516.053 512"><path d="M259.389 480.288c-28.774-.005-57.548.057-86.322-.023-29.385-.081-51.836-11.592-66.762-38.041-27.855-49.359-56.531-98.255-85.031-147.248-15.427-26.52-15.413-52.81-.057-79.306 28.425-49.045 56.837-98.098 85.075-147.25 14.3-24.892 35.214-37.902 64.209-37.825 59.239.158 118.479.082 177.718.092 27.889.005 48.302 12.308 62.184 36.559 28.578 49.926 57.775 99.497 86.273 149.468 14.518 25.457 14.702 51.715.169 77.259-27.611 48.53-56.011 96.611-83.514 145.202-16.183 28.59-39.588 42.468-72.704 41.311-27.049-.946-54.157-.193-81.238-.198zm-2.139-88.067c76.424.36 138.429-60.164 138.789-135.473.366-76.5-62.673-140.339-137.95-139.704-74.021.625-137.892 65.106-137.491 138.803.401 73.457 63.099 136.028 136.652 136.374z"/></svg>