<svg xmlns="http://www.w3.org/2000/svg" viewBox="0 0 750.623 512"><path d="M320.646 270.859H18.789c-6.947 0-12.577-6.756-12.577-15.093s5.63-15.093 12.577-15.093h301.857c6.947 0 12.577 6.756 12.577 15.093s-5.63 15.093-12.577 15.093zM320.646 49.497H18.789c-6.947 0-12.577-6.756-12.577-15.093s5.63-15.093 12.577-15.093h301.857c6.947 0 12.577 6.756 12.577 15.093s-5.63 15.093-12.577 15.093zM320.646 160.178H18.789c-6.947 0-12.577-6.756-12.577-15.093s5.63-15.093 12.577-15.093h301.857c6.947 0 12.577 6.756 12.577 15.093s-5.63 15.093-12.577 15.093zM320.646 381.54H18.789c-6.947 0-12.577-6.756-12.577-15.093 0-8.336 5.63-15.093 12.577-15.093h301.857c6.947 0 12.577 6.756 12.577 15.093 0 8.336-5.63 15.093-12.577 15.093zM320.646 492.221H18.789c-6.947 0-12.577-6.756-12.577-15.093 0-8.336 5.63-15.093 12.577-15.093h301.857c6.947 0 12.577 6.756 12.577 15.093 0 8.336-5.63 15.093-12.577 15.093zM733.184 270.859H431.327c-6.947 0-12.577-6.756-12.577-15.093s5.63-15.093 12.577-15.093h301.857c6.947 0 12.577 6.756 12.577 15.093s-5.63 15.093-12.577 15.093zM733.184 49.497H431.327c-6.947 0-12.577-6.756-12.577-15.093s5.63-15.093 12.577-15.093h301.857c6.947 0 12.577 6.756 12.577 15.093s-5.63 15.093-12.577 15.093zM733.184 160.178H431.327c-6.947 0-12.577-6.756-12.577-15.093s5.63-15.093 12.577-15.093h301.857c6.947 0 12.577 6.756 12.577 15.093s-5.63 15.093-12.577 15.093zM733.184 381.54H431.327c-6.947 0-12.577-6.756-12.577-15.093 0-8.336 5.63-15.093 12.577-15.093h301.857c6.947 0 12.577 6.756 12.577 15.093 0 8.336-5.63 15.093-12.577 15.093zM733.184 492.221H431.327c-6.947 0-12.577-6.756-12.577-15.093 0-8.336 5.63-15.093 12.577-15.093h301.857c6.947 0 12.577 6.756 12.577 15.093 0 8.336-5.63 15.093-12.577 15.093z"/></svg>