<svg width="336" height="336" fill="none" xmlns="http://www.w3.org/2000/svg"><path d="M168 331c90.022 0 163-72.978 163-163S258.022 5 168 5 5 77.978 5 168s72.978 163 163 163z" stroke="#636B82" stroke-width="10" stroke-miterlimit="10"/><path d="M168 97.405c16.558 0 29.981-13.423 29.981-29.981S184.558 37.443 168 37.443s-29.981 13.423-29.981 29.98c0 16.559 13.423 29.982 29.981 29.982z" fill="#636B82"/><path d="M252.432 108.312l-1.29-4.104a9.775 9.775 0 00-12.235-6.332s-49.643 17.042-64.496 17.902c-4.495.235-8.678 0-12.86 0-14.815-.547-64.458-17.902-64.458-17.902a9.772 9.772 0 00-12.234 6.332l-1.251 4.104a9.735 9.735 0 006.332 12.235s42.998 4.652 49.877 13.29c10.945 13.916-6.801 58.633-6.918 58.907l-34.985 80.21c-2.463 4.808 3.362 10.671 8.091 13.134l3.909 1.954c.868.422 1.788.724 2.737.899a14.146 14.146 0 0015.635-10.045c5.003-15.988 21.812-65.318 39.675-65.2 21.147 0 39.792 70.125 39.792 70.125 2.463 4.769 12.274 6.645 17.043 4.221l3.909-1.954c4.808-2.463 10.593-8.326 8.13-13.134l-36.196-82.282s-14.502-42.997-3.674-56.913c6.606-8.599 49.095-13.055 49.095-13.055a9.777 9.777 0 006.372-12.392z" fill="#636B82"/></svg>