<svg version="1" xmlns="http://www.w3.org/2000/svg" width="666.667" height="666.667" viewBox="0 0 500.000000 500.000000"><path d="M196.9 3.5C155.2 9.2 114.1 31 78.9 66c-15.7 15.6-22.9 24.3-35 42.9C3 170.9-9 245.9 10 319.3c6.1 23.5 15.7 45.8 23.5 54.5 4.7 5.2 14 10.7 23.5 13.8 5.1 1.7 11.9 1.9 87 2.4l81.5.5 6.8 3.3c7.7 3.8 11.4 8.1 14.7 16.8 1.9 5.2 2 7.7 2 47.1v41.6l12.8-.7c74.3-3.9 141.7-39.2 186.2-97.6 31.3-41 48.7-90 50.7-142 1.5-39.3-7.3-84.8-22.4-115.7-5.9-12.1-11.5-18.3-20.6-22.8-14.9-7.2-10.2-6.9-101.2-7.5l-82-.5-5.2-2.4c-6.1-2.7-11.6-8.4-14.7-15-1.9-4.3-2.1-6.8-2.7-36.6-.4-17.6-1.1-33.4-1.6-35.1-4.5-13.7-17.1-21.5-34.1-21.3-4.2.1-12 .7-17.3 1.4zm78 114c56.1 10.7 99.7 54.8 109.8 110.9 2.2 12.3 2.2 34.3-.1 46.6-10.1 55.8-52.2 98.7-108.6 110.7-11.9 2.5-40.1 2.5-52 0-56.4-12-98.6-54.9-108.6-110.7-2.3-12.5-2.3-34.4-.1-46.6 5.1-28.1 18-52.7 38.2-72.9 22.7-22.7 51.4-36.3 84-39.9 7.4-.8 28.9.3 37.4 1.9z"/></svg>