<?xml version="1.0" standalone="no"?>
<!DOCTYPE svg PUBLIC "-//W3C//DTD SVG 20010904//EN"
 "http://www.w3.org/TR/2001/REC-SVG-20010904/DTD/svg10.dtd">
<svg version="1.0" xmlns="http://www.w3.org/2000/svg"
 width="260.000000pt" height="260.000000pt" viewBox="0 0 260.000000 260.000000"
 preserveAspectRatio="xMidYMid meet">
<metadata>
Created by potrace 1.11, written by Peter Selinger 2001-2013
</metadata>
<g transform="translate(0.000000,260.000000) scale(0.100000,-0.100000)"
fill="#000000" stroke="none">
<path d="M172 2570 c-109 -55 -172 -154 -172 -272 l0 -67 753 -3 c744 -3 753
-4 832 -26 320 -90 559 -329 647 -647 19 -70 22 -105 22 -280 0 -233 -13 -297
-89 -452 -114 -232 -325 -405 -580 -475 -79 -22 -91 -23 -832 -26 l-753 -3 0
-42 c0 -57 47 -154 95 -196 21 -18 61 -44 89 -57 l51 -24 1065 0 1065 0 51 24
c73 34 123 83 156 151 l28 60 0 1065 0 1065 -28 60 c-33 68 -83 117 -156 151
l-51 24 -1066 0 -1066 0 -61 -30z"/>
<path d="M1210 1850 c-219 -34 -401 -197 -466 -416 -23 -78 -23 -220 0 -298
56 -190 199 -337 386 -397 48 -16 91 -21 165 -21 74 0 117 5 165 21 181 58
324 201 381 381 29 90 29 240 0 330 -86 270 -358 442 -631 400z"/>
</g>
</svg>
