<svg xmlns="http://www.w3.org/2000/svg" viewBox="0 0 1256.251 512"><path d="M29.318 350.89c0-50.58 41.911-77.069 139.212-87.668-.965-25.055-11.081-46.251-43.357-46.251-23.114 0-45.275 10.598-66.471 23.126L38.47 203.003c26.007-16.385 59.731-30.83 97.301-30.83 58.778 0 88.162 36.123 88.162 102.13V414.48h-45.769l-3.846-26.007h-1.929c-21.196 17.821-45.287 31.783-73.223 31.783-41.429-.001-69.848-27.937-69.848-69.366zm139.212 0v-52.991c-64.542 8.199-85.739 25.055-85.739 48.662 0 21.196 14.445 30.348 34.194 30.348 19.268 0 33.725-9.633 51.545-26.019zM581.45 389.425h-1.447l-4.823 25.055h-43.828V74.378h55.391v87.679l-1.447 39.499c19.75-17.35 44.322-29.383 68.412-29.383 59.249 0 93.455 47.21 93.455 119.951 0 81.41-48.662 128.132-101.171 128.132-21.667-.001-44.793-11.07-64.542-30.831zm108.382-96.337c0-47.216-15.409-75.152-51.062-75.152-17.338 0-33.724 8.669-52.027 26.501v110.311c16.868 14.445 33.724 19.75 47.698 19.75 31.3 0 55.391-27.937 55.391-81.41zM1028.081 296.452c0-78.999 55.402-124.279 118.51-124.279 30.348 0 52.015 11.551 69.365 26.49l-26.984 36.129c-12.516-11.069-24.561-17.338-39.499-17.338-38.052 0-64.542 31.312-64.542 78.999 0 47.216 26.007 78.528 63.095 78.528 18.315 0 35.171-9.151 48.662-20.232l22.631 36.606c-22.149 19.267-50.098 28.901-77.069 28.901-64.554-.001-114.169-45.276-114.169-123.804z"/></svg>