<?xml version="1.0" encoding="utf-8"?>
<!-- Generator: Adobe Illustrator 23.0.6, SVG Export Plug-In . SVG Version: 6.00 Build 0)  -->
<svg version="1.1" id="Layer_1" xmlns="http://www.w3.org/2000/svg" xmlns:xlink="http://www.w3.org/1999/xlink" x="0px" y="0px"
	 viewBox="0 0 512 512" enable-background="new 0 0 512 512" xml:space="preserve">
<g>
	<path d="M32.229,277.784c0-19.306,15.997-29.417,53.136-33.462c-0.368-9.563-4.229-17.654-16.549-17.654
		c-8.822,0-17.281,4.045-25.372,8.827l-7.722-14.158c9.927-6.254,22.799-11.768,37.139-11.768c22.435,0,33.651,13.788,33.651,38.982
		v53.504h-17.47l-1.468-9.927h-0.736c-8.091,6.802-17.286,12.131-27.949,12.131C43.077,304.26,32.229,293.597,32.229,277.784z
		 M85.366,277.784v-20.226c-24.635,3.129-32.726,9.563-32.726,18.574c0,8.091,5.513,11.584,13.052,11.584
		C73.046,287.715,78.564,284.038,85.366,277.784z"/>
	<path d="M242.974,292.493h-0.552l-1.841,9.563h-16.729V172.241h21.142v33.467l-0.552,15.077
		c7.538-6.622,16.917-11.215,26.112-11.215c22.615,0,35.671,18.02,35.671,45.784c0,31.074-18.574,48.907-38.616,48.907
		C259.339,304.26,250.512,300.035,242.974,292.493z M284.343,255.721c0-18.022-5.882-28.685-19.49-28.685
		c-6.618,0-12.872,3.309-19.858,10.115v42.105c6.438,5.513,12.872,7.538,18.206,7.538
		C275.148,286.795,284.343,276.132,284.343,255.721z"/>
	<path d="M413.45,257.006c0-30.153,21.147-47.437,45.234-47.437c11.584,0,19.854,4.409,26.476,10.111l-10.299,13.79
		c-4.777-4.225-9.375-6.618-15.077-6.618c-14.524,0-24.635,11.952-24.635,30.153c0,18.022,9.927,29.974,24.083,29.974
		c6.991,0,13.424-3.493,18.574-7.722l8.638,13.972c-8.454,7.354-19.122,11.031-29.417,11.031
		C432.388,304.26,413.45,286.979,413.45,257.006z"/>
</g>
</svg>
