<?xml version="1.0" encoding="utf-8"?>
<!-- Generator: Adobe Illustrator 23.0.6, SVG Export Plug-In . SVG Version: 6.00 Build 0)  -->
<svg version="1.1" id="Layer_1" xmlns="http://www.w3.org/2000/svg" xmlns:xlink="http://www.w3.org/1999/xlink" x="0px" y="0px"
	 viewBox="0 0 512 512" enable-background="new 0 0 512 512" xml:space="preserve">
<path d="M256.711,480.288c-28.774-0.005-57.548,0.057-86.322-0.023c-29.385-0.081-51.836-11.592-66.762-38.041
	c-27.855-49.359-56.531-98.255-85.031-147.248c-15.427-26.52-15.413-52.81-0.057-79.306c28.425-49.045,56.837-98.098,85.075-147.25
	c14.3-24.892,35.214-37.902,64.209-37.825c59.239,0.158,118.479,0.082,177.718,0.092c27.889,0.005,48.302,12.308,62.184,36.559
	c28.578,49.926,57.775,99.497,86.273,149.468c14.518,25.457,14.702,51.715,0.169,77.259c-27.611,48.53-56.011,96.611-83.514,145.202
	c-16.183,28.59-39.588,42.468-72.704,41.311C310.9,479.54,283.792,480.293,256.711,480.288z M254.485,403.373
	c82.618,0.389,149.648-65.04,150.038-146.453c0.395-82.7-67.752-151.714-149.131-151.026
	c-80.02,0.676-149.067,70.382-148.634,150.052C107.191,335.356,174.97,402.998,254.485,403.373z"/>
</svg>
