<?xml version="1.0" encoding="utf-8"?>
<!-- Generator: Adobe Illustrator 23.0.6, SVG Export Plug-In . SVG Version: 6.00 Build 0)  -->
<svg version="1.1" id="Layer_1" xmlns="http://www.w3.org/2000/svg" xmlns:xlink="http://www.w3.org/1999/xlink" x="0px" y="0px"
	 viewBox="0 0 512 512" enable-background="new 0 0 512 512" xml:space="preserve">
<g>
	<path d="M255.875,241.779l43.849-37.047c3.531-2.772,6.805-5.797,11.341-5.797c6.805,0,12.855,5.291,12.855,12.096
		c0,7.308-7.561,12.096-12.855,16.382l-37.803,30.745l37.803,30.748c5.294,4.283,12.855,9.071,12.855,16.382
		c0,6.805-6.05,12.096-12.855,12.096c-4.536,0-7.81-3.025-11.341-5.797l-43.849-37.047l-43.853,37.047
		c-3.531,2.772-6.805,5.797-11.341,5.797c-6.805,0-12.602-5.291-12.602-12.096c0-7.311,7.308-12.1,12.602-16.382l37.803-30.748
		l-37.803-30.745c-5.294-4.286-12.602-9.075-12.602-16.382c0-6.805,5.797-12.096,12.602-12.096c4.536,0,7.81,3.025,11.341,5.797
		L255.875,241.779z"/>
</g>
</svg>
