<svg xmlns="http://www.w3.org/2000/svg" viewBox="0 0 512 512">
  <path d="M460.583 265.761H51.417c-5.65 0-10.229-4.579-10.229-10.229 0-5.65 4.579-10.229 10.229-10.229h409.166c5.65 0 10.229 4.579 10.229 10.229 0 5.65-4.579 10.229-10.229 10.229zM460.583 183.928H51.417c-5.65 0-10.229-4.579-10.229-10.229 0-5.65 4.579-10.229 10.229-10.229h409.166c5.65 0 10.229 4.579 10.229 10.229 0 5.65-4.579 10.229-10.229 10.229zM460.583 347.594H51.417c-5.65 0-10.229-4.579-10.229-10.229s4.579-10.229 10.229-10.229h409.166c5.65 0 10.229 4.579 10.229 10.229s-4.579 10.229-10.229 10.229z"/>
</svg>
