<svg xmlns="http://www.w3.org/2000/svg" viewBox="0 0 512 512">
  <path d="M220.425 263.941h-199.5c-4.591 0-8.312-3.721-8.312-8.312 0-4.591 3.721-8.312 8.312-8.312h199.5c4.591 0 8.312 3.721 8.312 8.312 0 4.591-3.721 8.312-8.312 8.312zM220.425 117.641h-199.5c-4.591 0-8.312-3.721-8.312-8.312 0-4.591 3.721-8.312 8.312-8.312h199.5c4.591 0 8.312 3.721 8.312 8.312 0 4.591-3.721 8.312-8.312 8.312zM220.425 190.791h-199.5c-4.591 0-8.312-3.721-8.312-8.312s3.721-8.312 8.312-8.312h199.5c4.591 0 8.312 3.721 8.312 8.312s-3.721 8.312-8.312 8.312zM220.425 337.091h-199.5c-4.591 0-8.312-3.721-8.312-8.312s3.721-8.312 8.312-8.312h199.5c4.591 0 8.312 3.721 8.312 8.312s-3.721 8.312-8.312 8.312zM220.425 410.241h-199.5c-4.591 0-8.312-3.721-8.312-8.312 0-4.591 3.721-8.312 8.312-8.312h199.5c4.591 0 8.312 3.721 8.312 8.312 0 4.591-3.721 8.312-8.312 8.312zM493.075 263.941h-199.5c-4.591 0-8.312-3.721-8.312-8.312 0-4.591 3.721-8.312 8.312-8.312h199.5c4.591 0 8.312 3.721 8.312 8.312 0 4.591-3.721 8.312-8.312 8.312zM493.075 117.641h-199.5c-4.591 0-8.312-3.721-8.312-8.312 0-4.591 3.721-8.312 8.312-8.312h199.5c4.591 0 8.312 3.721 8.312 8.312 0 4.591-3.721 8.312-8.312 8.312zM493.075 190.791h-199.5c-4.591 0-8.312-3.721-8.312-8.312s3.721-8.312 8.312-8.312h199.5c4.591 0 8.312 3.721 8.312 8.312s-3.721 8.312-8.312 8.312zM493.075 337.091h-199.5c-4.591 0-8.312-3.721-8.312-8.312s3.721-8.312 8.312-8.312h199.5c4.591 0 8.312 3.721 8.312 8.312s-3.721 8.312-8.312 8.312zM493.075 410.241h-199.5c-4.591 0-8.312-3.721-8.312-8.312 0-4.591 3.721-8.312 8.312-8.312h199.5c4.591 0 8.312 3.721 8.312 8.312 0 4.591-3.721 8.312-8.312 8.312z"/>
</svg>
