<svg xmlns="http://www.w3.org/2000/svg" viewBox="0 0 512 512">
  <path d="M256.711 480.288c-28.774-.005-57.548.057-86.322-.023-29.385-.081-51.836-11.592-66.762-38.041-27.855-49.359-56.531-98.255-85.031-147.248-15.427-26.52-15.413-52.81-.057-79.306 28.425-49.045 56.837-98.098 85.075-147.25 14.3-24.892 35.214-37.902 64.209-37.825 59.239.158 118.479.082 177.718.092 27.889.005 48.302 12.308 62.184 36.559 28.578 49.926 57.775 99.497 86.273 149.468 14.518 25.457 14.702 51.715.169 77.259-27.611 48.53-56.011 96.611-83.514 145.202-16.183 28.59-39.588 42.468-72.704 41.311-27.049-.946-54.157-.193-81.238-.198zm-2.226-76.915c82.618.389 149.648-65.04 150.038-146.453.395-82.7-67.752-151.714-149.131-151.026-80.02.676-149.067 70.382-148.634 150.052.433 79.41 68.212 147.052 147.727 147.427z"/>
</svg>
