<svg xmlns="http://www.w3.org/2000/svg" viewBox="0 0 512 512">
  <path d="M422.25 263.997H89.75c-4.591 0-8.312-3.721-8.312-8.312 0-4.591 3.721-8.312 8.312-8.312h332.5c4.591 0 8.312 3.721 8.312 8.312 0 4.591-3.721 8.312-8.312 8.312zM422.25 117.697H89.75c-4.591 0-8.312-3.721-8.312-8.312 0-4.591 3.721-8.312 8.312-8.312h332.5c4.591 0 8.312 3.721 8.312 8.312 0 4.591-3.721 8.312-8.312 8.312zM422.25 190.847H89.75c-4.591 0-8.312-3.721-8.312-8.312s3.721-8.312 8.312-8.312h332.5c4.591 0 8.312 3.721 8.312 8.312s-3.721 8.312-8.312 8.312zM422.25 337.147H89.75c-4.591 0-8.312-3.721-8.312-8.312s3.721-8.312 8.312-8.312h332.5c4.591 0 8.312 3.721 8.312 8.312s-3.721 8.312-8.312 8.312zM422.25 410.297H89.75c-4.591 0-8.312-3.721-8.312-8.312 0-4.591 3.721-8.312 8.312-8.312h332.5c4.591 0 8.312 3.721 8.312 8.312 0 4.591-3.721 8.312-8.312 8.312z"/>
</svg>
