<?xml version="1.0" encoding="utf-8"?>
<!-- Generator: Adobe Illustrator 23.0.6, SVG Export Plug-In . SVG Version: 6.00 Build 0)  -->
<svg version="1.1" id="Layer_1" xmlns="http://www.w3.org/2000/svg" xmlns:xlink="http://www.w3.org/1999/xlink" x="0px" y="0px"
	 viewBox="0 0 512 512" enable-background="new 0 0 512 512" xml:space="preserve">
<path d="M422.25,263.997H89.75c-4.591,0-8.312-3.721-8.312-8.312c0-4.591,3.721-8.312,8.312-8.312h332.5
	c4.591,0,8.312,3.721,8.312,8.312C430.562,260.276,426.841,263.997,422.25,263.997z"/>
<path d="M422.25,117.697H89.75c-4.591,0-8.312-3.721-8.312-8.312c0-4.591,3.721-8.312,8.312-8.312h332.5
	c4.591,0,8.312,3.721,8.312,8.312C430.562,113.976,426.841,117.697,422.25,117.697z"/>
<path d="M422.25,190.847H89.75c-4.591,0-8.312-3.721-8.312-8.312s3.721-8.312,8.312-8.312h332.5c4.591,0,8.312,3.721,8.312,8.312
	S426.841,190.847,422.25,190.847z"/>
<path d="M422.25,337.147H89.75c-4.591,0-8.312-3.721-8.312-8.312s3.721-8.312,8.312-8.312h332.5c4.591,0,8.312,3.721,8.312,8.312
	S426.841,337.147,422.25,337.147z"/>
<path d="M422.25,410.297H89.75c-4.591,0-8.312-3.721-8.312-8.312c0-4.591,3.721-8.312,8.312-8.312h332.5
	c4.591,0,8.312,3.721,8.312,8.312C430.562,406.576,426.841,410.297,422.25,410.297z"/>
</svg>
