<?xml version="1.0" encoding="utf-8"?>
<!-- Generator: Adobe Illustrator 23.0.6, SVG Export Plug-In . SVG Version: 6.00 Build 0)  -->
<svg version="1.1" id="Layer_1" xmlns="http://www.w3.org/2000/svg" xmlns:xlink="http://www.w3.org/1999/xlink" x="0px" y="0px"
	 viewBox="0 0 512 512" enable-background="new 0 0 512 512" xml:space="preserve">
<path d="M220.425,263.941h-199.5c-4.591,0-8.312-3.721-8.312-8.312c0-4.591,3.721-8.312,8.312-8.312h199.5
	c4.591,0,8.312,3.721,8.312,8.312C228.737,260.22,225.016,263.941,220.425,263.941z"/>
<path d="M220.425,117.641h-199.5c-4.591,0-8.312-3.721-8.312-8.312c0-4.591,3.721-8.312,8.312-8.312h199.5
	c4.591,0,8.312,3.721,8.312,8.312C228.737,113.92,225.016,117.641,220.425,117.641z"/>
<path d="M220.425,190.791h-199.5c-4.591,0-8.312-3.721-8.312-8.312s3.721-8.312,8.312-8.312h199.5c4.591,0,8.312,3.721,8.312,8.312
	S225.016,190.791,220.425,190.791z"/>
<path d="M220.425,337.091h-199.5c-4.591,0-8.312-3.721-8.312-8.312s3.721-8.312,8.312-8.312h199.5c4.591,0,8.312,3.721,8.312,8.312
	S225.016,337.091,220.425,337.091z"/>
<path d="M220.425,410.241h-199.5c-4.591,0-8.312-3.721-8.312-8.312c0-4.591,3.721-8.312,8.312-8.312h199.5
	c4.591,0,8.312,3.721,8.312,8.312C228.737,406.52,225.016,410.241,220.425,410.241z"/>
<path d="M493.075,263.941h-199.5c-4.591,0-8.312-3.721-8.312-8.312c0-4.591,3.721-8.312,8.312-8.312h199.5
	c4.591,0,8.312,3.721,8.312,8.312C501.387,260.22,497.666,263.941,493.075,263.941z"/>
<path d="M493.075,117.641h-199.5c-4.591,0-8.312-3.721-8.312-8.312c0-4.591,3.721-8.312,8.312-8.312h199.5
	c4.591,0,8.312,3.721,8.312,8.312C501.387,113.92,497.666,117.641,493.075,117.641z"/>
<path d="M493.075,190.791h-199.5c-4.591,0-8.312-3.721-8.312-8.312s3.721-8.312,8.312-8.312h199.5c4.591,0,8.312,3.721,8.312,8.312
	S497.666,190.791,493.075,190.791z"/>
<path d="M493.075,337.091h-199.5c-4.591,0-8.312-3.721-8.312-8.312s3.721-8.312,8.312-8.312h199.5c4.591,0,8.312,3.721,8.312,8.312
	S497.666,337.091,493.075,337.091z"/>
<path d="M493.075,410.241h-199.5c-4.591,0-8.312-3.721-8.312-8.312c0-4.591,3.721-8.312,8.312-8.312h199.5
	c4.591,0,8.312,3.721,8.312,8.312C501.387,406.52,497.666,410.241,493.075,410.241z"/>
</svg>
