<svg xmlns="http://www.w3.org/2000/svg" viewBox="0 0 802.75 512"><path d="M773.17 51.271H29.192c-10.273 0-18.599-8.326-18.599-18.599s8.326-18.599 18.599-18.599H773.17c10.273 0 18.599 8.326 18.599 18.599s-8.326 18.599-18.599 18.599zM773.17 274.464H29.192c-10.273 0-18.599-8.326-18.599-18.599s8.326-18.599 18.599-18.599H773.17c10.273 0 18.599 8.326 18.599 18.599s-8.326 18.599-18.599 18.599zM773.17 497.657H29.192c-10.273 0-18.599-8.326-18.599-18.599s8.326-18.599 18.599-18.599H773.17c10.273 0 18.599 8.326 18.599 18.599s-8.326 18.599-18.599 18.599z"/></svg>