<svg xmlns="http://www.w3.org/2000/svg" viewBox="0 0 512 512">
  <path d="M121.45 277.784c0-19.306 15.997-29.417 53.136-33.462-.368-9.563-4.229-17.654-16.549-17.654-8.822 0-17.281 4.045-25.372 8.827l-7.722-14.158c9.927-6.254 22.799-11.768 37.139-11.768 22.435 0 33.651 13.788 33.651 38.982v53.504h-17.47l-1.468-9.927h-.736c-8.091 6.802-17.286 12.131-27.949 12.131-15.813.001-26.66-10.662-26.66-26.475zm53.136 0v-20.226c-24.635 3.129-32.726 9.563-32.726 18.574 0 8.091 5.513 11.584 13.052 11.584 7.354-.001 12.872-3.678 19.674-9.932zM242.085 292.493h-.552l-1.841 9.563h-16.729V172.241h21.142v33.467l-.552 15.077c7.538-6.622 16.917-11.215 26.112-11.215 22.615 0 35.671 18.02 35.671 45.784 0 31.074-18.574 48.907-38.616 48.907-8.27-.001-17.097-4.226-24.635-11.768zm41.369-36.772c0-18.022-5.882-28.685-19.49-28.685-6.618 0-12.872 3.309-19.858 10.115v42.105c6.438 5.513 12.872 7.538 18.206 7.538 11.947.001 21.142-10.662 21.142-31.073zM322.447 257.006c0-30.153 21.147-47.437 45.234-47.437 11.584 0 19.854 4.409 26.476 10.111l-10.299 13.79c-4.777-4.225-9.375-6.618-15.077-6.618-14.524 0-24.635 11.952-24.635 30.153 0 18.022 9.927 29.974 24.083 29.974 6.991 0 13.424-3.493 18.574-7.722l8.638 13.972c-8.454 7.354-19.122 11.031-29.417 11.031-24.639 0-43.577-17.281-43.577-47.254z"/>
</svg>
