<svg xmlns="http://www.w3.org/2000/svg" viewBox="0 0 512 512">
  <path d="M255.875 241.779l43.849-37.047c3.531-2.772 6.805-5.797 11.341-5.797 6.805 0 12.855 5.291 12.855 12.096 0 7.308-7.561 12.096-12.855 16.382l-37.803 30.745 37.803 30.748c5.294 4.283 12.855 9.071 12.855 16.382 0 6.805-6.05 12.096-12.855 12.096-4.536 0-7.81-3.025-11.341-5.797l-43.849-37.047-43.853 37.047c-3.531 2.772-6.805 5.797-11.341 5.797-6.805 0-12.602-5.291-12.602-12.096 0-7.311 7.308-12.1 12.602-16.382l37.803-30.748-37.803-30.745c-5.294-4.286-12.602-9.075-12.602-16.382 0-6.805 5.797-12.096 12.602-12.096 4.536 0 7.81 3.025 11.341 5.797l43.853 37.047z"/>
</svg>
