<svg xmlns="http://www.w3.org/2000/svg" viewBox="0 0 750.623 512"><path d="M626.859 270.943H123.764c-6.947 0-12.577-6.756-12.577-15.093s5.63-15.093 12.577-15.093h503.095c6.947 0 12.577 6.756 12.577 15.093s-5.63 15.093-12.577 15.093zM626.859 49.581H123.764c-6.947 0-12.577-6.756-12.577-15.093s5.63-15.093 12.577-15.093h503.095c6.947 0 12.577 6.756 12.577 15.093s-5.63 15.093-12.577 15.093zM626.859 160.262H123.764c-6.947 0-12.577-6.756-12.577-15.093 0-8.336 5.63-15.093 12.577-15.093h503.095c6.947 0 12.577 6.756 12.577 15.093s-5.63 15.093-12.577 15.093zM626.859 381.624H123.764c-6.947 0-12.577-6.756-12.577-15.093 0-8.336 5.63-15.093 12.577-15.093h503.095c6.947 0 12.577 6.756 12.577 15.093 0 8.336-5.63 15.093-12.577 15.093zM626.859 492.305H123.764c-6.947 0-12.577-6.756-12.577-15.093 0-8.336 5.63-15.093 12.577-15.093h503.095c6.947 0 12.577 6.756 12.577 15.093 0 8.336-5.63 15.093-12.577 15.093z"/></svg>