<?xml version="1.0" encoding="utf-8"?>
<!-- Generator: Adobe Illustrator 23.0.6, SVG Export Plug-In . SVG Version: 6.00 Build 0)  -->
<svg version="1.1" id="Layer_1" xmlns="http://www.w3.org/2000/svg" xmlns:xlink="http://www.w3.org/1999/xlink" x="0px" y="0px"
	 viewBox="0 0 512 512" enable-background="new 0 0 512 512" xml:space="preserve">
<path d="M460.583,143.012H51.417c-5.65,0-10.229-4.579-10.229-10.229c0-5.65,4.579-10.229,10.229-10.229h409.166
	c5.65,0,10.229,4.579,10.229,10.229C470.812,138.433,466.233,143.012,460.583,143.012z"/>
<path d="M460.583,265.761H51.417c-5.65,0-10.229-4.579-10.229-10.229c0-5.65,4.579-10.229,10.229-10.229h409.166
	c5.65,0,10.229,4.579,10.229,10.229C470.812,261.182,466.233,265.761,460.583,265.761z"/>
<path d="M460.583,388.511H51.417c-5.65,0-10.229-4.579-10.229-10.229s4.579-10.229,10.229-10.229h409.166
	c5.65,0,10.229,4.579,10.229,10.229S466.233,388.511,460.583,388.511z"/>
</svg>
