<svg xmlns="http://www.w3.org/2000/svg" viewBox="0 0 512 512">
  <g fill="#222">
    <path d="M76.342 263.266l24.297 7.344c-1.633 6.815-4.203 12.506-7.712 17.076-3.509 4.57-7.864 8.018-13.066 10.343-5.202 2.326-11.823 3.489-19.86 3.489-9.752 0-17.718-1.417-23.899-4.251s-11.517-7.818-16.004-14.954c-4.489-7.136-6.732-16.269-6.732-27.401 0-14.841 3.947-26.248 11.842-34.219s19.065-11.957 33.508-11.957c11.301 0 20.186 2.286 26.654 6.855 6.466 4.57 11.271 11.588 14.413 21.053l-24.481 5.447c-.857-2.733-1.755-4.732-2.693-5.998-1.552-2.121-3.448-3.754-5.692-4.897-2.244-1.141-4.754-1.714-7.528-1.714-6.284 0-11.098 2.528-14.444 7.581-2.53 3.749-3.794 9.638-3.794 17.665 0 9.944 1.509 16.761 4.529 20.448 3.019 3.688 7.262 5.532 12.73 5.532 5.304 0 9.312-1.488 12.026-4.467 2.713-2.978 4.682-7.303 5.906-12.975zM113.308 210.265h24.971v89.723h-24.971v-89.723zM222.677 299.987H199.42V289.46c-3.469 4.325-6.968 7.406-10.496 9.242-3.53 1.835-7.865 2.754-13.006 2.754-6.855 0-12.231-2.05-16.127-6.151-3.897-4.1-5.845-10.414-5.845-18.942v-41.372h25.032v35.742c0 4.081.754 6.977 2.264 8.691 1.509 1.713 3.631 2.571 6.365 2.571 2.978 0 5.416-1.142 7.314-3.428 1.897-2.284 2.846-6.385 2.846-12.302v-31.274h24.909v64.996zM233.386 281.933l24.726-2.326c1.02 2.938 2.448 5.04 4.284 6.304 1.836 1.265 4.284 1.897 7.344 1.897 3.345 0 5.936-.712 7.772-2.14 1.428-1.059 2.142-2.382 2.142-3.971 0-1.793-.939-3.178-2.815-4.156-1.346-.692-4.917-1.547-10.71-2.566-8.651-1.507-14.658-2.904-18.024-4.188-3.366-1.283-6.202-3.454-8.507-6.511-2.306-3.056-3.458-6.542-3.458-10.455 0-4.28 1.244-7.969 3.733-11.067 2.488-3.097 5.916-5.41 10.282-6.939 4.366-1.528 10.221-2.293 17.565-2.293 7.751 0 13.474.592 17.167 1.775 3.692 1.184 6.772 3.02 9.242 5.508 2.468 2.489 4.519 5.855 6.151 10.098l-23.624 2.325c-.612-2.081-1.633-3.611-3.06-4.59-1.959-1.305-4.325-1.958-7.099-1.958-2.816 0-4.866.499-6.151 1.497-1.285.998-1.928 2.21-1.928 3.636 0 1.59.816 2.791 2.448 3.605 1.631.815 5.182 1.549 10.65 2.201 8.282.937 14.444 2.241 18.483 3.913 4.039 1.671 7.13 4.055 9.272 7.153 2.143 3.098 3.213 6.501 3.213 10.21 0 3.751-1.132 7.399-3.397 10.945-2.265 3.546-5.835 6.369-10.71 8.468-4.876 2.098-11.517 3.148-19.922 3.148-11.873 0-20.329-1.693-25.368-5.08-5.039-3.386-8.273-8.2-9.701-14.443zM315.275 210.265h24.909v16.953h-24.909v-16.953zm0 24.726h24.909v64.997h-24.909v-64.997zM348.752 234.991h25.917l12.609 41.189 13.084-41.189H425.5l-27.624 64.997h-22.093l-27.031-64.997zM501.575 273.671h-49.94c.448 3.999 1.53 6.977 3.244 8.935 2.407 2.815 5.548 4.223 9.425 4.223 2.448 0 4.773-.612 6.977-1.835 1.347-.775 2.794-2.143 4.345-4.101l24.542 2.265c-3.754 6.529-8.283 11.21-13.587 14.046-5.305 2.835-12.913 4.254-22.829 4.254-8.609 0-15.383-1.215-20.319-3.641-4.937-2.427-9.027-6.283-12.271-11.567-3.244-5.284-4.866-11.496-4.866-18.636 0-10.16 3.253-18.381 9.761-24.665 6.508-6.283 15.494-9.425 26.96-9.425 9.303 0 16.647 1.408 22.033 4.223 5.386 2.816 9.486 6.896 12.302 12.24 2.815 5.346 4.223 12.302 4.223 20.87v2.814zm-25.337-11.935c-.49-4.814-1.786-8.262-3.887-10.343-2.102-2.081-4.866-3.122-8.293-3.122-3.958 0-7.12 1.571-9.486 4.713-1.51 1.959-2.469 4.876-2.877 8.752h24.543z"/>
  </g>
</svg>
