<?xml version="1.0" encoding="utf-8"?>
<!-- Generator: Adobe Illustrator 23.0.6, SVG Export Plug-In . SVG Version: 6.00 Build 0)  -->
<svg version="1.1" id="Layer_1" xmlns="http://www.w3.org/2000/svg" xmlns:xlink="http://www.w3.org/1999/xlink" x="0px" y="0px"
	 viewBox="0 0 512 512" enable-background="new 0 0 512 512" xml:space="preserve">
<g>
	<path fill="#222222" d="M76.342,263.266l24.297,7.344c-1.633,6.815-4.203,12.506-7.712,17.076
		c-3.509,4.57-7.864,8.018-13.066,10.343c-5.202,2.326-11.823,3.489-19.86,3.489c-9.752,0-17.718-1.417-23.899-4.251
		s-11.517-7.818-16.004-14.954c-4.489-7.136-6.732-16.269-6.732-27.401c0-14.841,3.947-26.248,11.842-34.219
		s19.065-11.957,33.508-11.957c11.301,0,20.186,2.286,26.654,6.855c6.466,4.57,11.271,11.588,14.413,21.053l-24.481,5.447
		c-0.857-2.733-1.755-4.732-2.693-5.998c-1.552-2.121-3.448-3.754-5.692-4.897c-2.244-1.141-4.754-1.714-7.528-1.714
		c-6.284,0-11.098,2.528-14.444,7.581c-2.53,3.749-3.794,9.638-3.794,17.665c0,9.944,1.509,16.761,4.529,20.448
		c3.019,3.688,7.262,5.532,12.73,5.532c5.304,0,9.312-1.488,12.026-4.467C73.149,273.263,75.118,268.938,76.342,263.266z"/>
	<path fill="#222222" d="M113.308,210.265h24.971v89.723h-24.971V210.265z"/>
	<path fill="#222222" d="M222.677,299.987H199.42V289.46c-3.469,4.325-6.968,7.406-10.496,9.242
		c-3.53,1.835-7.865,2.754-13.006,2.754c-6.855,0-12.231-2.05-16.127-6.151c-3.897-4.1-5.845-10.414-5.845-18.942v-41.372h25.032
		v35.742c0,4.081,0.754,6.977,2.264,8.691c1.509,1.713,3.631,2.571,6.365,2.571c2.978,0,5.416-1.142,7.314-3.428
		c1.897-2.284,2.846-6.385,2.846-12.302v-31.274h24.909V299.987z"/>
	<path fill="#222222" d="M233.386,281.933l24.726-2.326c1.02,2.938,2.448,5.04,4.284,6.304c1.836,1.265,4.284,1.897,7.344,1.897
		c3.345,0,5.936-0.712,7.772-2.14c1.428-1.059,2.142-2.382,2.142-3.971c0-1.793-0.939-3.178-2.815-4.156
		c-1.346-0.692-4.917-1.547-10.71-2.566c-8.651-1.507-14.658-2.904-18.024-4.188c-3.366-1.283-6.202-3.454-8.507-6.511
		c-2.306-3.056-3.458-6.542-3.458-10.455c0-4.28,1.244-7.969,3.733-11.067c2.488-3.097,5.916-5.41,10.282-6.939
		c4.366-1.528,10.221-2.293,17.565-2.293c7.751,0,13.474,0.592,17.167,1.775c3.692,1.184,6.772,3.02,9.242,5.508
		c2.468,2.489,4.519,5.855,6.151,10.098l-23.624,2.325c-0.612-2.081-1.633-3.611-3.06-4.59c-1.959-1.305-4.325-1.958-7.099-1.958
		c-2.816,0-4.866,0.499-6.151,1.497c-1.285,0.998-1.928,2.21-1.928,3.636c0,1.59,0.816,2.791,2.448,3.605
		c1.631,0.815,5.182,1.549,10.65,2.201c8.282,0.937,14.444,2.241,18.483,3.913c4.039,1.671,7.13,4.055,9.272,7.153
		c2.143,3.098,3.213,6.501,3.213,10.21c0,3.751-1.132,7.399-3.397,10.945c-2.265,3.546-5.835,6.369-10.71,8.468
		c-4.876,2.098-11.517,3.148-19.922,3.148c-11.873,0-20.329-1.693-25.368-5.08C238.048,292.99,234.814,288.176,233.386,281.933z"/>
	<path fill="#222222" d="M315.275,210.265h24.909v16.953h-24.909V210.265z M315.275,234.991h24.909v64.997h-24.909V234.991z"/>
	<path fill="#222222" d="M348.752,234.991h25.917l12.609,41.189l13.084-41.189H425.5l-27.624,64.997h-22.093L348.752,234.991z"/>
	<path fill="#222222" d="M501.575,273.671h-49.94c0.448,3.999,1.53,6.977,3.244,8.935c2.407,2.815,5.548,4.223,9.425,4.223
		c2.448,0,4.773-0.612,6.977-1.835c1.347-0.775,2.794-2.143,4.345-4.101l24.542,2.265c-3.754,6.529-8.283,11.21-13.587,14.046
		c-5.305,2.835-12.913,4.254-22.829,4.254c-8.609,0-15.383-1.215-20.319-3.641c-4.937-2.427-9.027-6.283-12.271-11.567
		c-3.244-5.284-4.866-11.496-4.866-18.636c0-10.16,3.253-18.381,9.761-24.665c6.508-6.283,15.494-9.425,26.96-9.425
		c9.303,0,16.647,1.408,22.033,4.223c5.386,2.816,9.486,6.896,12.302,12.24c2.815,5.346,4.223,12.302,4.223,20.87V273.671z
		 M476.238,261.736c-0.49-4.814-1.786-8.262-3.887-10.343c-2.102-2.081-4.866-3.122-8.293-3.122c-3.958,0-7.12,1.571-9.486,4.713
		c-1.51,1.959-2.469,4.876-2.877,8.752H476.238z"/>
</g>
</svg>
