<?xml version="1.0" encoding="UTF-8"?>
<svg width="256px" height="160px" viewBox="0 0 256 160" version="1.1" xmlns="http://www.w3.org/2000/svg" xmlns:xlink="http://www.w3.org/1999/xlink">
    <!-- Generator: Sketch 55.2 (78181) - https://sketchapp.com -->
    <title>boat_inactive_default</title>
    <desc>Created with Sketch.</desc>
    <g id="boat_inactive_default" stroke="none" stroke-width="1" fill="none" fill-rule="evenodd">
        <path d="M147.999451,115 C141.399451,114.3 124.299451,112.7 109.999451,111.5 C81.0994509,109.1 79.2994509,108.5 78.6994509,102.5 C78.2994509,99.1 80.8994509,94.8 94.6994509,75.2 C97.8994509,70.8 99.0994509,68.3 98.2994509,68 C96.9994509,67.6 71.8994509,65.3 48.4994509,63.5 C12.8994509,60.7 5.29945086,59.6 3.89945086,58.4 C1.69945086,56.6 0.499450858,53.1 1.19945086,50.5 C2.19945086,46.8 29.0994509,21.7 36.4994509,18.1 C42.5994509,15.2 43.6994509,15 53.4994509,15.1 C63.5994509,15.1 64.2994509,15.3 73.3994509,19.4 C90.7994509,27.2 105.299451,27.1 123.299451,19.3 C132.599451,15.2 133.399451,15 142.999451,15 C152.599451,15 153.399451,15.2 162.699451,19.3 C174.699451,24.5 184.299451,26.1 194.799451,24.5 C198.699451,24 202.275191,22.9482223 203.799451,23.2 C204.899451,23.1 212.299451,28.9 222.699451,38 C258.699451,69.5 254.999451,70.8 255.299451,74.6 C255.499451,77.3 252.45613,81.7702503 250.469713,82.7649962 C249.145435,83.4281602 234.455348,82.0731615 206.399451,78.7 L196.199451,87.3 C166.399451,118.2 168.299451,116.5 163.999451,116.4 C161.799451,116.3 154.599451,115.7 147.999451,115 Z M160.10063,102.618118 C161.019492,102.702155 161.925911,102.358684 162.558336,101.686816 L184.690192,78.1746353 C184.843833,78.0114119 184.938178,77.8013007 184.958084,77.5780269 C185.007128,77.027924 184.600939,76.5422198 184.050836,76.4931761 L118.549516,70.6534968 C117.111858,70.5253243 115.716647,71.1816164 114.898667,72.3708175 L99.9356185,94.1244841 C99.7413782,94.4068756 99.6229693,94.7344467 99.5917529,95.0757673 C99.4911514,96.175746 100.301307,97.1490086 101.401285,97.2496101 L160.10063,102.618118 Z" id="boat" fill="#636B82" transform="translate(128.154415, 65.723022) scale(-1, 1) rotate(180.000000) translate(-128.154415, -65.723022) "></path>
        <path d="M31.8403595,141.292105 C29.0205289,136.57531 28.9613408,131.274212 35.0856579,129.193672 C38.5888672,128.793672 46.5756602,127.093672 51.7831336,125.193672 C61.437155,121.633165 64.9404695,120.581342 74.2191352,120.074212 C83.4978008,119.567082 88.0460847,121.693672 97.7982622,125.393672 C106.698308,128.793672 108.686616,129.193672 116.734529,129.193672 C124.782443,129.193672 125.019966,128.793672 133.920011,125.393672 C143.672189,121.693672 144.425028,120.074212 157.396371,120.074212 C170.367714,120.074212 172.312472,121.693672 182.06465,125.393672 C190.964695,128.793672 192.953003,129.193672 201.000917,129.193672 C206.965841,129.193672 211.415864,128.693672 214.161622,127.593672 C219.842502,125.393672 223.469785,124.461868 225.633948,128.74377 C227.715571,132.862365 228.480027,137.498502 219.958707,140.298502 C215.792728,141.698502 211.13182,142.474212 201.000917,142.474212 C189.481598,142.474212 165.77946,132.993672 158.867723,132.993672 C151.861304,132.993672 149.210227,133.493672 140.594225,136.693672 C130.747367,140.393672 130.179279,142.074212 116.734529,142.074212 C103.28978,142.074212 102.721692,140.393672 92.8748328,136.693672 C78.7673139,131.493672 70.6247192,131.493672 56.3278377,136.593672 C42.9777695,141.393672 35.0856579,146.72059 31.8403595,141.292105 Z" id="wave" fill="#636B82" transform="translate(128.500000, 131.789207) scale(-1, 1) rotate(180.000000) translate(-128.500000, -131.789207) "></path>
    </g>
</svg>