<?xml version="1.0" encoding="UTF-8"?>
<svg width="256px" height="160px" viewBox="0 0 256 160" version="1.1" xmlns="http://www.w3.org/2000/svg" xmlns:xlink="http://www.w3.org/1999/xlink">
    <!-- Generator: Sketch 55.2 (78181) - https://sketchapp.com -->
    <title>car_inactive_default</title>
    <desc>Created with Sketch.</desc>
    <g id="car_inactive_default" stroke="none" stroke-width="1" fill="none" fill-rule="evenodd">
        <path d="M53,161 C36.4314575,161 23,147.568542 23,131 C23,114.431458 36.4314575,101 53,101 C69.5685425,101 83,114.431458 83,131 C83,147.568542 69.5685425,161 53,161 Z M53,152 C64.5979797,152 74,142.59798 74,131 C74,119.40202 64.5979797,110 53,110 C41.4020203,110 32,119.40202 32,131 C32,142.59798 41.4020203,152 53,152 Z" id="wheel" fill="#636B82"></path>
        <path d="M206,161 C189.431458,161 176,147.568542 176,131 C176,114.431458 189.431458,101 206,101 C222.568542,101 236,114.431458 236,131 C236,147.568542 222.568542,161 206,161 Z M206,152 C217.59798,152 227,142.59798 227,131 C227,119.40202 217.59798,110 206,110 C194.40202,110 185,119.40202 185,131 C185,142.59798 194.40202,152 206,152 Z" id="wheel" fill="#636B82"></path>
        <path d="M111.346334,10 C129.898589,7.25706599 143.3,11.8749669 159.7,24.6760407 C165.8,29.4764434 179.2,44.106242 183.6,50.9639601 L186.9,56.2215439 L198.7,58.1645641 C224.4,62.3934902 228,63.1935573 233.4,66.0509399 C240.1,69.5940942 247.8,78.0519465 250.9,85.4811411 C254.9,94.9676512 256,101.939665 256,118.626779 C256,133.828054 255.9,134.513826 253.5,137.142617 C251.7,139.314228 243.335436,140.980028 242.5,140 C250.9,114.153796 232.538487,93.1385908 206,93.1385908 C179.461513,93.1385908 163.29888,115.891191 170.2,140 L129.5,140 L90,140 C92.6171598,113.48349 81.7343445,94 53,94 C24.2656555,94 12.7302666,114.663752 17.3259512,140 C16.1170684,141.305352 8.2,136.685436 6.7,135.771074 C1.6,132.799396 0.9,128.79906 0.7,99.5394632 C0.5,73.8230204 0.6,74.0229533 2.9,68.6510741 C4.2,65.4508057 6.9,61.6790607 9.1,59.8503359 C13.6,56.1928862 38,47.9636245 53.3,44.9919467 C62.9,43.1632219 63.2,42.0489266 69.3,35.8769803 C72.7,32.4481212 77.7,27.8763092 80.3,25.8189937 C87.4,20.218524 98.6647081,11.8749669 111.346334,10 Z M138.4,21.7960304 C125.8,16.7809536 108.7,18.4163047 96,25.9389199 C85.2,32.1532542 72.8,48.9428591 74.5,54.8301231 C75.9,59.6271531 78.2,59.8451999 125.1,60.6083638 C162.1,61.1534808 169.9,61.0444574 171.5,59.7361765 C173.3,58.3188722 173.3,57.991802 170.1,50.9052804 C164.4,38.3675884 152.4,27.3562242 138.4,21.7960304 Z" id="Shape" fill="#636B82"></path>
    </g>
</svg>